<svg width="934" height="454" viewBox="0 0 934 454" fill="none" xmlns="http://www.w3.org/2000/svg">
<g clip-path="url(#clip0_28_421)">
<path d="M763.396 346.501H120.91C112.696 346.492 104.822 343.225 99.014 337.417C93.2062 331.609 89.9393 323.734 89.9301 315.52V71.7103C89.9395 63.4964 93.2063 55.6216 99.0141 49.8135C104.822 44.0054 112.696 40.7383 120.91 40.729H763.396C771.61 40.7383 779.484 44.0054 785.292 49.8135C791.1 55.6216 794.366 63.4964 794.376 71.7103V315.52C794.367 323.734 791.1 331.609 785.292 337.417C779.484 343.225 771.61 346.492 763.396 346.501Z" fill="white"/>
<path d="M763.396 346.501H120.91C112.696 346.492 104.822 343.225 99.014 337.417C93.2062 331.609 89.9393 323.734 89.9301 315.52V71.7103C89.9395 63.4964 93.2063 55.6216 99.0141 49.8135C104.822 44.0054 112.696 40.7383 120.91 40.729H763.396C771.61 40.7383 779.484 44.0054 785.292 49.8135C791.1 55.6216 794.366 63.4964 794.376 71.7103V315.52C794.367 323.734 791.1 331.609 785.292 337.417C779.484 343.225 771.61 346.492 763.396 346.501ZM120.91 43.423C113.408 43.423 106.213 46.4033 100.909 51.7082C95.604 57.0131 92.624 64.208 92.624 71.7103V315.52C92.624 319.235 93.3556 322.913 94.7771 326.345C96.1986 329.777 98.2821 332.895 100.909 335.522C103.535 338.149 106.653 340.232 110.085 341.654C113.517 343.075 117.195 343.807 120.91 343.807H763.396C767.111 343.807 770.789 343.075 774.221 341.654C777.652 340.232 780.771 338.149 783.397 335.522C786.024 332.895 788.107 329.777 789.529 326.345C790.95 322.913 791.682 319.235 791.682 315.52V223.59C791.682 175.807 772.701 129.981 738.915 96.1929C705.129 62.4049 659.306 43.423 611.525 43.423H120.91Z" fill="#E6E6E6"/>
<path d="M70.0731 398.404C70.3359 396.598 68.4444 394.828 65.8484 394.45C63.2524 394.072 60.9349 395.23 60.6722 397.036C60.4094 398.842 62.3009 400.613 64.8969 400.99C67.4929 401.368 69.8104 400.21 70.0731 398.404Z" fill="white"/>
<path d="M100.981 395.388C101.244 393.582 99.3527 391.812 96.7567 391.434C94.1607 391.056 91.8432 392.214 91.5804 394.02C91.3177 395.826 93.2092 397.596 95.8052 397.974C98.4012 398.352 100.719 397.194 100.981 395.388Z" fill="#3F3D56"/>
<path d="M61.6096 373.38C61.8724 371.574 59.9809 369.804 57.3849 369.426C54.7889 369.048 52.4714 370.206 52.2087 372.012C51.9459 373.818 53.8374 375.589 56.4334 375.966C59.0294 376.344 61.3469 375.186 61.6096 373.38Z" fill="#FF6584"/>
<path d="M48.1792 363.13C48.1917 361.472 47.2669 360.121 46.1136 360.112C44.9603 360.103 44.0152 361.44 44.0026 363.098C43.9901 364.756 44.9149 366.107 46.0682 366.116C47.2215 366.125 48.1666 364.788 48.1792 363.13Z" fill="#E6E6E6"/>
<path d="M43.6246 344.038C43.6372 342.38 42.7124 341.029 41.5591 341.02C40.4058 341.011 39.4607 342.348 39.4481 344.006C39.4356 345.664 40.3604 347.015 41.5137 347.024C42.667 347.033 43.6121 345.696 43.6246 344.038Z" fill="#3F3D56"/>
<path d="M79.0421 377.639C79.0546 375.981 78.1298 374.63 76.9765 374.621C75.8232 374.612 74.8781 375.949 74.8655 377.607C74.853 379.265 75.7778 380.616 76.9311 380.625C78.0844 380.634 79.0295 379.297 79.0421 377.639Z" fill="#E6E6E6"/>
<path d="M64.1059 385.097C64.1184 383.439 63.1937 382.087 62.0403 382.079C60.887 382.07 59.9419 383.407 59.9294 385.065C59.9168 386.723 60.8416 388.074 61.9949 388.083C63.1483 388.092 64.0934 386.755 64.1059 385.097Z" fill="#FF6584"/>
<path d="M84.8977 398.881C84.9102 397.223 83.9854 395.872 82.832 395.863C81.6787 395.854 80.7336 397.191 80.7211 398.849C80.7085 400.507 81.6333 401.858 82.7866 401.867C83.94 401.876 84.8851 400.539 84.8977 398.881Z" fill="#3F3D56"/>
<path d="M816.783 9.05456C817.354 6.7995 815.19 4.3055 811.948 3.48399C808.707 2.66248 805.616 3.82456 805.044 6.07962C804.473 8.33467 806.637 10.8287 809.879 11.6503C813.12 12.4718 816.211 11.3096 816.783 9.05456Z" fill="white"/>
<path d="M777.198 8.79943C777.77 6.54438 775.605 4.05031 772.364 3.2288C769.122 2.4073 766.031 3.56944 765.46 5.8245C764.888 8.07955 767.053 10.5736 770.294 11.3951C773.536 12.2166 776.627 11.0545 777.198 8.79943Z" fill="#3F3D56"/>
<path d="M824.211 41.8979C824.782 39.6429 822.618 37.1489 819.376 36.3274C816.135 35.5059 813.044 36.6679 812.473 38.923C811.901 41.1781 814.066 43.6721 817.307 44.4936C820.548 45.3151 823.639 44.153 824.211 41.8979Z" fill="#FF6584"/>
<path d="M833.438 54.2823C833.673 52.1819 832.679 50.3468 831.218 50.1836C829.757 50.0203 828.382 51.5907 828.148 53.6911C827.913 55.7915 828.907 57.6266 830.368 57.7898C831.829 57.9531 833.204 56.3827 833.438 54.2823Z" fill="#E6E6E6"/>
<path d="M836.699 79.0848C836.934 76.9844 835.939 75.1493 834.478 74.986C833.017 74.8228 831.643 76.3931 831.408 78.4935C831.173 80.594 832.167 82.429 833.628 82.5923C835.089 82.7556 836.464 81.1852 836.699 79.0848Z" fill="#3F3D56"/>
<path d="M796.224 31.8145C796.459 29.7141 795.464 27.8791 794.003 27.7158C792.542 27.5525 791.168 29.1229 790.933 31.2233C790.698 33.3237 791.692 35.1588 793.154 35.322C794.615 35.4853 795.989 33.915 796.224 31.8145Z" fill="#E6E6E6"/>
<path d="M816.145 24.3304C816.379 22.2299 815.385 20.3949 813.924 20.2316C812.463 20.0683 811.088 21.6387 810.854 23.7391C810.619 25.8395 811.613 27.6746 813.074 27.8379C814.535 28.0011 815.91 26.4308 816.145 24.3304Z" fill="#FF6584"/>
<path d="M791.603 4.11038C791.838 2.00997 790.844 0.174904 789.383 0.011638C787.922 -0.151628 786.547 1.41873 786.312 3.51914C786.078 5.61955 787.072 7.45462 788.533 7.61789C789.994 7.78115 791.369 6.21079 791.603 4.11038Z" fill="#3F3D56"/>
<path d="M346.912 188.653C346.948 213.053 337.935 236.599 321.617 254.738V254.751C319.31 257.317 316.873 259.762 314.317 262.079C311.7 264.449 308.958 266.675 306.1 268.747C304.107 270.202 302.06 271.575 299.958 272.869C297.466 274.418 294.903 275.85 292.267 277.166C290.314 278.149 288.321 279.065 286.287 279.914C274.147 285.016 261.109 287.64 247.94 287.632C240.502 287.64 233.088 286.809 225.837 285.153C222.483 284.391 219.174 283.447 215.923 282.325C214.671 281.907 213.418 281.449 212.179 280.964C204.665 278.06 197.539 274.236 190.965 269.582C177.067 259.797 165.924 246.597 158.608 231.255C151.292 215.913 148.05 198.945 149.195 181.987C150.34 165.028 155.832 148.65 165.143 134.43C174.454 120.21 187.27 108.628 202.356 100.799C217.442 92.9699 234.29 89.1583 251.276 89.731C268.263 90.3038 284.816 95.2417 299.341 104.069C313.865 112.896 325.872 125.316 334.204 140.13C342.536 154.945 346.913 171.656 346.912 188.653Z" fill="#F2F2F2"/>
<path d="M643.13 115.077H472.069C470.642 115.075 469.274 114.507 468.265 113.496C467.256 112.486 466.69 111.117 466.69 109.689C466.69 108.262 467.256 106.892 468.265 105.882C469.274 104.872 470.642 104.303 472.069 104.301H643.13C644.559 104.301 645.929 104.869 646.94 105.879C647.95 106.89 648.518 108.26 648.518 109.689C648.518 111.118 647.95 112.489 646.94 113.499C645.929 114.51 644.559 115.077 643.13 115.077Z" fill="#E22727"/>
<path d="M643.13 187.816H472.069C470.642 187.814 469.274 187.245 468.265 186.235C467.256 185.225 466.69 183.856 466.69 182.428C466.69 181 467.256 179.631 468.265 178.621C469.274 177.611 470.642 177.042 472.069 177.04H643.13C644.557 177.042 645.926 177.611 646.934 178.621C647.943 179.631 648.51 181 648.51 182.428C648.51 183.856 647.943 185.225 646.934 186.235C645.926 187.245 644.557 187.814 643.13 187.816Z" fill="#E6E6E6"/>
<path d="M643.13 260.555H472.069C470.642 260.553 469.274 259.984 468.265 258.974C467.256 257.964 466.69 256.594 466.69 255.167C466.69 253.739 467.256 252.37 468.265 251.36C469.274 250.349 470.642 249.781 472.069 249.779H643.13C644.559 249.779 645.929 250.346 646.94 251.357C647.95 252.367 648.518 253.738 648.518 255.167C648.518 256.596 647.95 257.966 646.94 258.977C645.929 259.987 644.559 260.555 643.13 260.555Z" fill="#E6E6E6"/>
<path d="M215.469 421.296C196.158 395.608 184.996 366.882 184.631 334.132C184.008 332.367 184.112 330.428 184.918 328.739C185.724 327.05 187.167 325.75 188.93 325.124L254.754 301.832C256.519 301.21 258.458 301.313 260.147 302.119C261.836 302.925 263.136 304.368 263.762 306.132L294.601 393.295C295.223 395.06 295.12 397 294.314 398.689C293.508 400.377 292.065 401.678 290.301 402.304L224.478 425.595C222.713 426.218 220.773 426.114 219.085 425.308C217.396 424.502 216.096 423.059 215.469 421.296Z" fill="#E6E6E6"/>
<path d="M211.204 393.182C199.589 381.438 194.618 360.491 191.378 337.145C190.795 335.493 190.892 333.676 191.647 332.094C192.402 330.513 193.753 329.295 195.404 328.709L251.974 308.691C253.627 308.109 255.444 308.205 257.025 308.96C258.607 309.715 259.825 311.067 260.411 312.718L287.853 390.282C288.436 391.935 288.339 393.751 287.584 395.333C286.83 396.915 285.478 398.132 283.827 398.719L248.783 411.119C241.421 413.715 233.33 413.284 226.285 409.921C219.24 406.559 213.816 400.539 211.204 393.182Z" fill="white"/>
<path d="M261.168 354.502L217.102 370.232C216.755 370.356 216.386 370.411 216.018 370.392C215.65 370.374 215.289 370.283 214.956 370.125C214.623 369.967 214.324 369.745 214.077 369.472C213.829 369.199 213.638 368.879 213.514 368.532C213.39 368.185 213.336 367.817 213.354 367.448C213.373 367.08 213.463 366.719 213.621 366.386C213.779 366.053 214.001 365.754 214.274 365.507C214.548 365.259 214.867 365.068 215.214 364.944L259.281 349.214C259.982 348.963 260.754 349.002 261.427 349.321C262.1 349.64 262.618 350.213 262.868 350.914C263.119 351.615 263.08 352.387 262.761 353.06C262.443 353.733 261.869 354.252 261.168 354.502Z" fill="#E22727"/>
<path d="M221.621 352.271L211.926 355.732C211.579 355.856 211.21 355.911 210.842 355.893C210.473 355.875 210.112 355.784 209.779 355.626C209.445 355.469 209.146 355.247 208.899 354.973C208.651 354.7 208.46 354.38 208.336 354.033C208.212 353.685 208.157 353.317 208.176 352.948C208.194 352.58 208.285 352.218 208.443 351.885C208.602 351.552 208.824 351.253 209.098 351.006C209.371 350.758 209.691 350.567 210.039 350.444L219.733 346.983C220.081 346.858 220.449 346.804 220.817 346.822C221.186 346.84 221.547 346.931 221.881 347.088C222.214 347.246 222.513 347.468 222.761 347.742C223.008 348.015 223.2 348.335 223.324 348.682C223.448 349.03 223.502 349.398 223.484 349.767C223.465 350.135 223.374 350.496 223.216 350.83C223.058 351.163 222.836 351.462 222.562 351.709C222.288 351.957 221.968 352.147 221.621 352.271Z" fill="#E22727"/>
<path d="M269.466 377.751L225.4 393.481C224.699 393.731 223.928 393.692 223.255 393.373C222.583 393.054 222.065 392.481 221.815 391.78C221.565 391.079 221.603 390.308 221.921 389.635C222.24 388.962 222.812 388.444 223.512 388.193L267.579 372.462C268.28 372.213 269.051 372.252 269.723 372.571C270.396 372.89 270.914 373.463 271.164 374.164C271.414 374.865 271.376 375.636 271.057 376.309C270.739 376.981 270.167 377.5 269.466 377.751Z" fill="#E22727"/>
<path d="M265.317 366.126L221.251 381.857C220.55 382.107 219.778 382.069 219.105 381.75C218.432 381.431 217.913 380.858 217.663 380.157C217.413 379.455 217.451 378.683 217.77 378.01C218.089 377.338 218.662 376.819 219.363 376.569L263.43 360.838C263.777 360.714 264.145 360.659 264.514 360.677C264.882 360.695 265.244 360.786 265.577 360.944C265.911 361.101 266.21 361.323 266.457 361.597C266.705 361.87 266.896 362.19 267.02 362.538C267.144 362.885 267.199 363.253 267.18 363.622C267.162 363.99 267.071 364.352 266.913 364.685C266.754 365.018 266.532 365.317 266.258 365.564C265.985 365.812 265.665 366.003 265.317 366.126Z" fill="#E22727"/>
<path d="M225.303 143.874C226.738 155.452 234.76 164.999 246.427 164.999C252.029 164.999 257.402 162.773 261.364 158.811C265.325 154.85 267.551 149.476 267.551 143.874C267.551 132.206 258.043 123.827 246.427 122.748C234.101 121.604 223.46 129.008 225.303 143.874Z" fill="#2F2E41"/>
<path d="M264.817 286.191C251.882 288.414 238.635 288.062 225.837 285.153C231.911 281.799 250.337 283.86 264.817 286.191Z" fill="#2F2E41"/>
<path d="M182.599 323.349L192.746 298.826L200.741 303.267L195.913 328.214C196.396 329.795 196.429 331.479 196.008 333.077C195.587 334.675 194.729 336.124 193.53 337.261C192.33 338.398 190.837 339.178 189.219 339.514C187.601 339.849 185.921 339.726 184.369 339.158C182.816 338.591 181.453 337.602 180.432 336.303C179.411 335.003 178.772 333.444 178.589 331.802C178.405 330.159 178.683 328.498 179.391 327.005C180.1 325.512 181.211 324.246 182.599 323.349Z" fill="#FFB6B6"/>
<path d="M287.567 256.987V257.001C287.203 265.541 286.705 273.663 286.287 279.913C274.147 285.016 261.109 287.64 247.94 287.632C240.502 287.64 233.088 286.809 225.837 285.153C222.483 284.391 219.174 283.447 215.923 282.325C216.376 282.033 216.865 281.802 217.378 281.638C222.227 279.994 217.432 278.499 217.472 276.937C217.62 271.225 219.196 264.369 221.23 257.796L212.179 280.964L207.464 293.006C207.464 293.006 207.626 303.405 204.636 300.227C201.632 297.048 201.848 307.339 201.848 307.339C200.914 308.004 200.111 308.835 199.477 309.79C199.211 310.22 199.11 310.733 199.194 311.232V311.245C199.33 311.637 199.596 311.97 199.949 312.188C201.982 313.562 199.06 317.199 197.767 318.64C197.416 319.031 197.187 319.26 197.187 319.26L184.755 318.371V318.128C184.809 316.66 185.146 308.928 187.072 307.083C189.187 305.049 188.149 301.829 188.149 301.829C188.149 301.829 193.672 296.94 189.968 292.966C188.486 291.363 189.146 281.867 190.964 269.582C194.938 242.48 204.461 201.8 208.582 202.379C209.432 198.253 211.404 194.442 214.283 191.366C217.161 188.29 220.833 186.07 224.894 184.949L238.323 181.258L240.72 171.789H259.631L262.918 178.012L276.697 184.235L276.872 184.316L277.303 184.504L277.465 185.016C277.465 185.016 277.451 185.03 277.465 185.03L285.129 209.101C288.577 213.061 288.442 236.203 287.567 256.987Z" fill="#E22727"/>
<path d="M319.769 305.492L306.963 282.246L315.426 278.779L331.886 298.136C333.422 298.746 334.757 299.773 335.742 301.1C336.727 302.427 337.322 304.003 337.46 305.65C337.598 307.297 337.274 308.95 336.525 310.423C335.775 311.896 334.63 313.131 333.217 313.988C331.804 314.846 330.18 315.293 328.527 315.278C326.875 315.263 325.259 314.787 323.862 313.905C322.465 313.022 321.341 311.767 320.618 310.281C319.895 308.794 319.601 307.136 319.769 305.492Z" fill="#FFB6B6"/>
<path d="M276.699 184.05C278.977 188.143 299.809 198.669 296.198 209.238C296.198 209.238 315.769 270.469 318.314 270.069C320.859 269.67 323.342 275.994 323.342 275.994C323.342 275.994 322.803 280.122 324.39 278.407C325.977 276.692 325.597 281.188 325.597 281.188C325.597 281.188 324.837 285.157 326.852 284.078C328.867 282.999 326.218 290.594 326.218 290.594L314.106 296.298L311.804 292.872C311.804 292.872 306.886 291.935 309.2 291.193C311.514 290.451 307.024 287.954 307.024 287.954C307.024 287.954 302.326 284.761 302.981 279.473C303.636 274.185 290.79 263.79 290.79 263.79C281.96 246.355 277.129 228.453 277.146 209.988L276.699 184.05Z" fill="#E22727"/>
<path d="M248.762 166.253C259.107 166.253 267.494 157.866 267.494 147.52C267.494 137.174 259.107 128.787 248.762 128.787C238.416 128.787 230.03 137.174 230.03 147.52C230.03 157.866 238.416 166.253 248.762 166.253Z" fill="#FFB6B6"/>
<path d="M229.365 149.561C229.958 153.632 233.427 159.311 232.615 159.311C231.802 159.311 226.026 142.53 231.802 141.436C235.992 140.642 236.929 141.339 240.845 139.64L240.293 140.16C242.884 142.045 246.492 140.884 249.449 139.657C252.415 138.438 256.014 137.276 258.614 139.153C260.247 140.331 260.937 142.379 261.953 144.117C262.969 145.864 264.845 147.514 266.779 146.977C267.533 146.686 268.174 146.164 268.612 145.485C269.05 144.806 269.262 144.006 269.216 143.199C269.208 141.59 267.114 140.06 267.819 138.617C269.91 134.339 268.03 131.424 263.472 129.411C261.815 129.159 260.157 128.902 258.5 128.639C259.368 127.436 260.421 126.377 261.62 125.503C261.114 124.204 260.238 123.083 259.101 122.277C257.697 121.624 256.132 121.398 254.6 121.627C251.172 121.806 247.746 121.984 244.322 122.163C241.773 122.118 239.243 122.61 236.897 123.609C234.069 125.064 232.217 127.899 230.868 130.784C227.846 137.268 228.325 142.484 229.365 149.561Z" fill="#2F2E41"/>
<path d="M697.949 137.274H416.243C415.933 137.274 415.635 137.151 415.416 136.932C415.197 136.712 415.073 136.415 415.073 136.105C415.073 135.794 415.197 135.497 415.416 135.277C415.635 135.058 415.933 134.935 416.243 134.935H697.949C698.259 134.935 698.556 135.058 698.776 135.277C698.995 135.497 699.118 135.794 699.118 136.105C699.118 136.415 698.995 136.712 698.776 136.932C698.556 137.151 698.259 137.274 697.949 137.274Z" fill="#E6E6E6"/>
<path d="M697.949 209.795H416.243C415.933 209.795 415.635 209.672 415.416 209.453C415.197 209.234 415.073 208.936 415.073 208.626C415.073 208.316 415.197 208.018 415.416 207.799C415.635 207.579 415.933 207.456 416.243 207.456H697.949C698.259 207.456 698.556 207.579 698.776 207.799C698.995 208.018 699.118 208.316 699.118 208.626C699.118 208.936 698.995 209.234 698.776 209.453C698.556 209.672 698.259 209.795 697.949 209.795Z" fill="#E6E6E6"/>
<path d="M697.949 282.316H416.243C415.933 282.316 415.635 282.193 415.416 281.974C415.197 281.754 415.073 281.457 415.073 281.147C415.073 280.836 415.197 280.539 415.416 280.319C415.635 280.1 415.933 279.977 416.243 279.977H697.949C698.259 279.977 698.556 280.1 698.776 280.319C698.995 280.539 699.118 280.836 699.118 281.147C699.118 281.457 698.995 281.754 698.776 281.974C698.556 282.193 698.259 282.316 697.949 282.316Z" fill="#E6E6E6"/>
<path d="M739.878 277.679C729.565 277.679 719.591 273.996 711.753 267.293C709.139 265.055 706.353 261.164 703.473 255.728C701.636 252.227 700.607 248.359 700.461 244.407C700.316 240.456 701.059 236.522 702.635 232.896C701.116 234.441 699.436 235.819 697.623 237.007L696.707 237.616L696.654 236.517C696.62 235.803 696.602 235.091 696.602 234.401C696.602 230.335 699.677 226.209 698.259 222.45C692.281 206.61 673.322 190.868 700.8 166.352C703.342 164.084 699.946 159.55 699.946 156.119C699.946 122.493 747.469 64.3182 760.938 95.1359C777.548 133.142 806.166 129.077 818.843 136.927L819.027 137.482L818.485 137.701C815.711 138.868 812.788 139.645 809.801 140.011C812.986 140.661 816.236 140.933 819.484 140.823L819.988 140.805L820.111 141.295C821.319 146.143 821.93 151.122 821.929 156.119L821.927 156.659C821.916 160.455 822.704 164.21 824.242 167.68C825.779 171.151 828.031 174.258 830.849 176.8C835.302 180.859 838.859 185.802 841.296 191.313C843.732 196.824 844.994 202.782 845 208.808C845 215.937 840.155 225.294 836.091 231.889C835.061 233.569 833.664 234.994 832.005 236.056C830.345 237.119 828.467 237.793 826.51 238.026C824.657 238.26 822.775 238.083 820.998 237.509C819.22 236.935 817.591 235.977 816.224 234.703C818.148 238.571 820.655 242.12 823.657 245.227L824.212 245.798L823.523 246.199C816.907 250.058 809.384 252.09 801.724 252.087L801.276 252.086C795.66 252.028 790.088 253.091 784.888 255.214C779.688 257.336 774.964 260.475 770.993 264.447C766.948 268.613 762.113 271.929 756.77 274.202C751.427 276.474 745.684 277.656 739.878 277.679Z" fill="#E6E6E6"/>
<path d="M724.989 346.217C724.802 346.217 724.621 346.149 724.48 346.026C724.338 345.903 724.246 345.734 724.22 345.548C722.185 327.399 722.063 309.086 723.857 290.911C726.543 262.24 735.17 220.943 761.011 187.027C761.073 186.945 761.151 186.877 761.239 186.826C761.327 186.774 761.425 186.741 761.526 186.727C761.627 186.713 761.73 186.72 761.829 186.746C761.928 186.772 762.021 186.817 762.102 186.879C762.183 186.941 762.252 187.019 762.303 187.107C762.354 187.195 762.388 187.293 762.402 187.394C762.415 187.495 762.409 187.598 762.383 187.697C762.357 187.796 762.311 187.889 762.249 187.97C736.631 221.594 728.074 262.587 725.407 291.056C723.622 309.11 723.741 327.301 725.761 345.329C725.776 345.439 725.768 345.552 725.737 345.659C725.705 345.766 725.651 345.865 725.578 345.949C725.504 346.033 725.414 346.101 725.313 346.147C725.211 346.193 725.101 346.217 724.989 346.217Z" fill="#3F3D56"/>
<path d="M746.078 234.867C745.913 234.867 745.753 234.815 745.62 234.719C745.487 234.622 745.388 234.486 745.337 234.33C745.286 234.173 745.286 234.005 745.337 233.849C745.388 233.692 745.487 233.556 745.62 233.459C752.983 228.475 760.937 224.425 769.3 221.404C782.365 216.62 802.232 212.284 822.685 218.794C822.783 218.825 822.873 218.875 822.951 218.941C823.029 219.006 823.094 219.087 823.14 219.178C823.187 219.269 823.216 219.368 823.225 219.47C823.233 219.571 823.222 219.674 823.191 219.771C823.16 219.869 823.11 219.959 823.044 220.037C822.978 220.115 822.898 220.18 822.807 220.227C822.716 220.274 822.617 220.302 822.515 220.311C822.413 220.319 822.311 220.308 822.213 220.277C802.179 213.901 782.672 218.166 769.835 222.866C761.607 225.835 753.78 229.817 746.535 234.719C746.402 234.815 746.242 234.867 746.078 234.867Z" fill="#3F3D56"/>
<path d="M710.458 146.145C710.446 145.981 710.486 145.818 710.573 145.678C710.659 145.538 710.788 145.43 710.94 145.368C711.092 145.306 711.26 145.294 711.42 145.333C711.58 145.372 711.723 145.461 711.829 145.587C717.33 152.573 721.942 160.215 725.557 168.339C731.269 181.027 737.025 200.531 732.005 221.401C731.982 221.501 731.938 221.595 731.878 221.678C731.818 221.76 731.743 221.831 731.655 221.884C731.568 221.938 731.471 221.974 731.37 221.99C731.269 222.006 731.166 222.002 731.066 221.978C730.967 221.954 730.873 221.911 730.79 221.85C730.707 221.79 730.637 221.714 730.584 221.627C730.53 221.539 730.495 221.442 730.479 221.341C730.463 221.24 730.468 221.137 730.492 221.037C735.408 200.595 729.75 181.444 724.138 168.978C720.584 160.985 716.049 153.465 710.639 146.59C710.533 146.465 710.469 146.309 710.458 146.145Z" fill="#3F3D56"/>
<path d="M74.0074 262.108C70.0358 258.137 65.3116 254.998 60.1116 252.875C54.9116 250.753 49.3403 249.689 43.7242 249.747L43.2756 249.749C35.6162 249.752 28.0934 247.72 21.4766 243.861L20.7881 243.46L21.3427 242.889C24.345 239.782 26.8519 236.233 28.7756 232.365C27.4093 233.639 25.7798 234.596 24.0023 235.171C22.2248 235.745 20.3428 235.921 18.4896 235.688C16.533 235.454 14.6546 234.781 12.9954 233.718C11.3361 232.655 9.93905 231.231 8.90898 229.551C4.84467 222.956 -6.10352e-05 213.598 -6.10352e-05 206.47C0.00626406 200.444 1.26781 194.486 3.70419 188.975C6.14058 183.464 9.69834 178.521 14.1507 174.462C16.9694 171.92 19.2209 168.813 20.7582 165.342C22.2956 161.872 23.0843 158.117 23.0731 154.321L23.0709 153.781C23.0701 148.784 23.6807 143.805 24.8891 138.957L25.0118 138.467L25.5156 138.484C28.764 138.595 32.0142 138.323 35.199 137.673C32.2117 137.307 29.2892 136.529 26.5146 135.363L25.9727 135.144L26.1566 134.589C38.8344 126.739 67.452 130.804 84.0624 92.7978C97.5312 61.9801 145.054 120.155 145.054 153.781C145.054 157.212 141.658 161.746 144.2 164.014C171.678 188.53 152.719 204.272 146.741 220.112C145.323 223.871 148.398 227.997 148.398 232.063C148.398 232.753 148.38 233.465 148.346 234.179L148.293 235.278L147.377 234.668C145.564 233.481 143.884 232.103 142.365 230.558C143.941 234.184 144.684 238.118 144.538 242.069C144.393 246.021 143.364 249.889 141.526 253.39C138.647 258.825 135.861 262.717 133.246 264.955C124.871 272.123 114.073 275.82 103.062 275.291C92.0506 274.762 81.6574 270.047 74.0074 262.108Z" fill="#E6E6E6"/>
<path d="M120.011 343.879C120.198 343.879 120.379 343.811 120.52 343.688C120.661 343.565 120.754 343.396 120.78 343.21C122.815 325.061 122.937 306.748 121.143 288.573C118.457 259.902 109.83 218.605 83.9886 184.688C83.9267 184.607 83.8494 184.539 83.761 184.487C83.6727 184.436 83.5751 184.403 83.4738 184.389C83.3725 184.375 83.2695 184.382 83.1707 184.408C83.0719 184.434 82.9792 184.479 82.8979 184.541C82.8166 184.603 82.7483 184.68 82.6969 184.769C82.6455 184.857 82.612 184.955 82.5983 185.056C82.5846 185.157 82.591 185.26 82.6172 185.359C82.6433 185.458 82.6886 185.551 82.7505 185.632C108.369 219.255 116.926 260.249 119.593 288.718C121.377 306.771 121.259 324.962 119.239 342.991C119.223 343.101 119.232 343.214 119.263 343.321C119.295 343.428 119.349 343.527 119.422 343.611C119.495 343.695 119.586 343.762 119.687 343.809C119.789 343.855 119.899 343.879 120.011 343.879Z" fill="#3F3D56"/>
<path d="M98.9222 232.529C99.0866 232.529 99.2468 232.477 99.3799 232.381C99.513 232.284 99.612 232.148 99.6629 231.992C99.7138 231.835 99.7138 231.667 99.6631 231.511C99.6123 231.354 99.5134 231.218 99.3804 231.121C92.017 226.137 84.0625 222.087 75.6998 219.066C62.6349 214.282 42.7676 209.946 22.3147 216.456C22.2173 216.487 22.1269 216.536 22.0488 216.602C21.9707 216.668 21.9064 216.749 21.8594 216.84C21.8125 216.931 21.7839 217.03 21.7752 217.131C21.7666 217.233 21.7781 217.336 21.8091 217.433C21.8401 217.531 21.89 217.621 21.9559 217.699C22.0218 217.777 22.1024 217.842 22.1932 217.888C22.284 217.935 22.3831 217.964 22.4849 217.973C22.5867 217.981 22.6893 217.97 22.7866 217.939C42.8206 211.563 62.3277 215.828 75.1646 220.528C83.3928 223.497 91.2198 227.479 98.4653 232.38C98.598 232.477 98.758 232.529 98.9222 232.529Z" fill="#3F3D56"/>
<path d="M134.542 143.807C134.554 143.643 134.514 143.48 134.427 143.34C134.341 143.2 134.212 143.092 134.06 143.03C133.907 142.968 133.739 142.955 133.58 142.995C133.42 143.034 133.277 143.123 133.171 143.249C127.67 150.235 123.058 157.877 119.442 166.001C113.731 178.688 107.975 198.193 112.995 219.063C113.018 219.162 113.062 219.256 113.122 219.339C113.182 219.422 113.257 219.493 113.345 219.546C113.432 219.6 113.529 219.636 113.63 219.652C113.731 219.668 113.834 219.664 113.934 219.64C114.033 219.616 114.127 219.572 114.21 219.512C114.293 219.452 114.363 219.376 114.416 219.288C114.469 219.201 114.505 219.104 114.521 219.003C114.537 218.902 114.532 218.798 114.508 218.699C109.592 198.257 115.25 179.106 120.862 166.64C124.416 158.647 128.951 151.126 134.361 144.252C134.467 144.127 134.531 143.971 134.542 143.807Z" fill="#3F3D56"/>
</g>
<path d="M880.728 387.257V365.854C880.728 363.142 882.934 360.917 885.679 360.917C886.916 360.917 888.148 361.384 889.089 362.273C900.774 373.366 921.644 393.162 931.196 402.227C932.513 403.471 933.25 405.203 933.25 407C933.25 408.804 932.513 410.529 931.196 411.773C921.644 420.838 900.774 440.641 889.089 451.721C888.148 452.616 886.916 453.083 885.679 453.083C882.934 453.083 880.728 450.865 880.728 448.146V426.743L821.347 426.743C817.851 426.743 814.75 423.649 814.75 420.16V393.84C814.75 390.351 817.851 387.257 821.347 387.257H880.728Z" fill="white"/>
<defs>
<clipPath id="clip0_28_421">
<rect width="845" height="426" fill="white"/>
</clipPath>
</defs>
</svg>
