<svg width="767" height="544" viewBox="0 0 767 544" fill="none" xmlns="http://www.w3.org/2000/svg">
<g clip-path="url(#clip0_1_41)">
<path opacity="0.1" d="M254.996 543.694C292.348 543.694 322.628 538.825 322.628 532.818C322.628 526.811 292.348 521.941 254.996 521.941C217.643 521.941 187.363 526.811 187.363 532.818C187.363 538.825 217.643 543.694 254.996 543.694Z" fill="#E22727"/>
<path opacity="0.1" d="M622.636 544C669.246 544 707.03 539.13 707.03 533.123C707.03 527.116 669.246 522.247 622.636 522.247C576.026 522.247 538.241 527.116 538.241 533.123C538.241 539.13 576.026 544 622.636 544Z" fill="#E22727"/>
<path opacity="0.1" d="M9.60625 235.047H80.0497V331.186H14.7634C14.5898 332.173 14.4233 333.166 14.2428 334.16H80.0497V411.694C79.9317 411.659 79.8276 411.617 79.7165 411.576C77.8564 410.839 76.0101 410.061 74.1638 409.227L72.9838 408.692C71.1329 407.816 69.282 406.889 67.4311 405.912C66.7856 405.571 66.1401 405.217 65.5015 404.855C55.2261 399.092 45.8913 391.789 37.8211 383.199C37.5851 382.97 37.363 382.727 37.127 382.504C36.0026 381.281 34.899 380.044 33.8301 378.779L32.6501 377.389C31.3869 375.839 30.1653 374.248 28.9784 372.635C28.8048 372.399 28.6383 372.163 28.4578 371.94C23.6307 365.239 19.6227 357.982 16.5194 350.326C16.4222 350.097 16.3389 349.846 16.2487 349.631C15.2955 347.175 14.451 344.696 13.7153 342.194C13.396 341.145 13.0906 340.109 12.8268 339.018C12.7297 338.699 12.6464 338.386 12.57 338.073C8.62758 322.665 8.16254 306.659 8.16254 290.765C8.16254 288.909 8.16254 287.047 8.16254 285.205C8.16254 278.776 8.23889 272.306 8.34994 265.842C8.34994 264.167 8.41935 262.499 8.45405 260.818C8.55123 256.55 8.69005 252.283 8.87051 248.016C8.91216 246.827 8.96768 245.646 9.03015 244.464C9.03015 243.783 9.06486 243.102 9.13427 242.421C9.30085 239.947 9.43967 237.494 9.60625 235.047Z" fill="#E22727"/>
<path opacity="0.1" d="M80.0497 128.004H41.4095C47.6907 118.16 54.5536 108.701 61.9616 99.6761C67.7018 92.615 73.7612 85.7345 80.0497 79.1043V128.004Z" fill="#E22727"/>
<path opacity="0.1" d="M80.0497 130.979V232.073H9.82837C9.82837 231.781 9.87695 231.482 9.89778 231.19C9.96025 230.391 10.0227 229.591 10.0921 228.799C10.1685 227.868 10.2518 226.93 10.342 226.019C10.4322 225.109 10.5294 223.997 10.6335 222.989C10.7376 221.981 10.8348 220.96 10.9528 219.952C11.0708 218.944 11.1749 217.936 11.2998 216.936C11.4248 215.935 11.5358 214.92 11.6677 213.919C11.7718 213.085 11.8829 212.258 11.9939 211.424C12.1536 210.25 12.3202 209.068 12.5006 207.901C12.5006 207.727 12.5492 207.546 12.577 207.379C13.8438 198.832 15.57 190.359 17.748 181.998C20.0278 173.227 22.939 164.633 26.4588 156.283C30.1997 147.549 34.5798 139.102 39.5633 131.013L80.0497 130.979Z" fill="#E22727"/>
<path opacity="0.1" d="M96.8676 235.04V331.186H247.326V235.04H96.8676ZM96.8676 334.153V416.719C97.7282 416.899 98.582 417.073 99.4288 417.219C100.581 417.442 101.726 417.643 102.899 417.817C103.121 417.852 103.35 417.886 103.593 417.907C104.051 417.984 104.523 418.046 104.981 418.109C106.141 418.269 107.293 418.401 108.452 418.505C109 418.56 109.556 418.609 110.111 418.651L111.45 418.755C112.179 418.811 112.901 418.852 113.616 418.873C114.06 418.873 114.504 418.915 114.963 418.929C115.31 418.929 115.657 418.929 116.018 418.929C116.378 418.929 116.892 418.929 117.329 418.929C117.926 418.929 118.523 418.929 119.113 418.929H119.911C120.508 418.929 121.105 418.929 121.695 418.873H121.737C122.146 418.873 122.563 418.873 122.979 418.818C123.095 418.825 123.211 418.825 123.326 418.818C123.673 418.818 124.02 418.818 124.354 418.769H124.597L126.922 418.588C127.685 418.519 128.456 418.428 129.233 418.345L130.816 418.157C137.254 417.254 143.621 415.898 149.868 414.099C163.903 410.179 177.632 404.695 191.66 400.678C209.796 395.501 229.835 392.957 247.361 399.288V334.153H96.8676ZM247.326 128.004V0.00694078C230.853 -0.171759 214.425 1.75741 198.441 5.7476C160.342 15.3316 126.158 36.1189 96.8676 62.6677V127.997H104.419V130.965H96.8676V232.073H247.326V130.972H135.424V128.004H247.326ZM440.582 84.7685C431.156 84.4349 421.786 81.4464 413.311 76.8316C397.104 68.0052 384.159 54.3764 369.694 42.8742C339.64 18.9177 302.368 4.46186 264.13 0.875684V128.004H478.917L479.451 127.441L440.582 84.7685ZM460.149 81.2935L480.895 104.089V75.3166C473.947 76.1783 467.86 78.2286 460.176 81.2657L460.149 81.2935ZM480.895 437.221V334.153H436.688C436.57 333.716 436.452 333.271 436.313 332.826C436.445 333.271 436.556 333.716 436.681 334.153H264.158V408.692C265.796 409.908 267.413 411.187 269.016 412.486C270.745 413.876 272.452 415.343 274.167 416.781L275.895 418.213C276.721 418.908 277.554 419.603 278.394 420.256C280.059 421.609 281.741 422.944 283.44 424.259C284.279 424.954 285.14 425.58 285.994 426.233C299.547 436.609 313.845 445.973 328.771 454.248C332.116 456.102 335.492 457.911 338.898 459.676C341.167 460.837 343.451 461.991 345.741 463.11C349.184 464.791 352.655 466.413 356.153 467.975C388.405 482.471 422.509 492.419 457.49 497.533C465.259 498.682 473.059 499.585 480.888 500.243V437.214H481.582L480.895 437.221ZM264.158 130.972V232.073H480.923V130.972H264.158ZM264.158 235.04V331.186H480.923V235.04H264.158ZM497.748 75.1915V107.286L524.227 78.1938C515.454 76.776 506.627 75.7637 497.748 75.1567V75.1915ZM497.748 235.075V331.186H708.578V235.04L497.748 235.075ZM707.808 444.852L708.55 334.153H497.748V501.348C511.328 501.919 524.928 501.757 538.491 500.862H538.727C545.205 500.454 551.653 499.861 558.071 499.083H558.217C592.457 495.092 625.937 486.147 657.611 472.527M749.231 250.872C748.44 249.003 747.614 247.147 746.774 245.312C745.206 241.837 743.547 238.46 741.839 235.082H725.389V331.186H766.979C766.958 303.97 760.08 276.17 749.252 250.837L749.231 250.872ZM725.389 334.188V429.402C737.105 418.157 747.003 405.293 754.132 390.587C762.704 372.878 766.625 353.704 766.944 334.174L725.389 334.188ZM725.389 207.06V232.08H740.298C735.788 223.467 730.818 215.103 725.41 207.025L725.389 207.06ZM582.406 94.0536C581.309 93.6366 580.213 93.2127 579.109 92.8026C567.47 88.4987 555.576 84.9196 543.495 82.0858L502.974 126.614L502.197 127.441L502.717 128.011H646.936C626.85 114.167 605.196 102.757 582.427 94.0189L582.406 94.0536ZM651.163 131.006H500.704L497.748 133.717V232.073H523.665H523.707H708.606V184.431C691.88 164.176 672.575 146.203 651.184 130.972L651.163 131.006Z" fill="#E22727"/>
<path opacity="0.1" d="M80.0497 181.97V232.073H9.82837C9.82837 231.781 9.87695 231.482 9.89778 231.19C9.96025 230.391 10.0227 229.591 10.0921 228.799C10.1685 227.868 10.2518 226.93 10.342 226.019C10.4322 225.109 10.5294 223.997 10.6335 222.989C10.7376 221.981 10.8348 220.96 10.9528 219.952C11.0708 218.944 11.1749 217.936 11.2998 216.936C11.4248 215.935 11.5358 214.92 11.6677 213.919C11.7718 213.085 11.8829 212.258 11.9939 211.424C12.1536 210.25 12.3202 209.068 12.5006 207.901C12.5006 207.727 12.5492 207.546 12.577 207.379C13.8438 198.832 15.57 190.359 17.748 181.998L80.0497 181.97Z" fill="#E22727"/>
<path opacity="0.1" d="M9.60625 235.047H80.0497V331.186H14.7634C14.5898 332.173 14.4233 333.166 14.2428 334.16H80.0497V411.694C79.9317 411.659 79.8276 411.617 79.7165 411.576C77.8564 410.839 76.0101 410.061 74.1638 409.227L72.9838 408.692C71.1329 407.816 69.282 406.889 67.4311 405.912C66.7856 405.571 66.1401 405.217 65.5015 404.855C55.2261 399.092 45.8913 391.789 37.8211 383.199C37.5851 382.97 37.363 382.727 37.127 382.504C36.0026 381.281 34.899 380.044 33.8301 378.779L32.6501 377.389C31.3869 375.839 30.1653 374.248 28.9784 372.635C28.8048 372.399 28.6383 372.163 28.4578 371.94C23.6307 365.239 19.6227 357.982 16.5194 350.326C16.4222 350.097 16.3389 349.846 16.2487 349.631C15.2955 347.175 14.451 344.696 13.7153 342.194C13.396 341.145 13.0906 340.109 12.8268 339.018C12.7297 338.699 12.6464 338.386 12.57 338.073C8.62758 322.665 8.16254 306.659 8.16254 290.765C8.16254 288.909 8.16254 287.047 8.16254 285.205C8.16254 278.776 8.23889 272.306 8.34994 265.842C8.34994 264.167 8.41935 262.499 8.45405 260.818C8.55123 256.55 8.69005 252.283 8.87051 248.016C8.91216 246.827 8.96768 245.646 9.03015 244.464C9.03015 243.783 9.06486 243.102 9.13427 242.421C9.30085 239.947 9.43967 237.494 9.60625 235.047Z" fill="#E22727"/>
<path opacity="0.1" d="M149.834 145.448V232.073H96.8676V145.448H104.419V116.12H135.417V145.448H149.834Z" fill="#E22727"/>
<path opacity="0.1" d="M149.834 235.04H96.8745V331.179H149.834V235.04Z" fill="#E22727"/>
<path opacity="0.1" d="M96.8676 334.16H149.834V414.085C143.586 415.882 137.219 417.236 130.781 418.137L129.198 418.331C128.421 418.421 127.651 418.498 126.887 418.574C126.124 418.651 125.332 418.706 124.562 418.755H124.319C123.986 418.755 123.625 418.797 123.299 418.804H122.945C122.528 418.804 122.112 418.845 121.695 418.859C121.105 418.894 120.515 418.901 119.911 418.908C119.655 418.908 119.412 418.908 119.155 418.908C118.558 418.908 117.968 418.908 117.371 418.908H116.059C115.705 418.908 115.365 418.908 114.997 418.908L113.658 418.859C112.964 418.859 112.214 418.783 111.492 418.734L110.159 418.637L108.501 418.484C107.334 418.38 106.175 418.248 105.03 418.088L103.642 417.893L102.948 417.796C101.789 417.615 100.643 417.421 99.4773 417.198C98.6236 417.052 97.7768 416.872 96.9161 416.698L96.8676 334.16Z" fill="#E22727"/>
<path opacity="0.1" d="M480.923 135.218H437.251V232.066H480.923V135.218Z" fill="#E22727"/>
<path opacity="0.1" d="M480.93 235.04V331.186H264.158V289.715H379.62V314.179H437.251V235.04H480.93Z" fill="#E22727"/>
<path opacity="0.1" d="M481.617 437.242H480.923V500.313C473.103 499.65 465.306 498.749 457.532 497.609C422.533 492.479 388.415 482.51 356.153 467.988C346.838 463.791 337.713 459.208 328.778 454.241C313.852 445.962 299.553 436.598 285.994 426.226C282.588 423.613 279.226 420.94 275.909 418.206C273.611 416.309 271.328 414.363 269.016 412.472C267.413 411.173 265.796 409.894 264.158 408.671V334.16H436.674C436.556 333.716 436.438 333.271 436.313 332.833C436.445 333.271 436.57 333.716 436.688 334.16H480.923V437.2C481.159 437.207 481.388 437.228 481.617 437.242Z" fill="#E22727"/>
<path opacity="0.1" d="M594.823 128.004H566.366V119.15H579.123V92.7748C580.229 93.1779 581.33 93.5926 582.427 94.0189V119.15H594.823V128.004Z" fill="#E22727"/>
<path opacity="0.1" d="M663.386 232.073H523.679C523.679 232.073 523.679 232.073 523.727 232.107L523.665 232.073H497.748V135.225H505.091V206.81H538.65V164.415H566.373V130.979H594.83V164.443H622.552V206.837H663.386V232.073Z" fill="#E22727"/>
<path opacity="0.1" d="M497.748 235.04V331.186H663.386V235.04H497.748ZM708.349 444.359L708.578 368.257H663.386V334.202H497.748V501.348C511.328 501.919 524.928 501.757 538.491 500.862H538.727C545.205 500.454 551.653 499.861 558.071 499.083H558.217C592.457 495.092 625.937 486.147 657.611 472.527" fill="#E22727"/>
<path opacity="0.1" d="M728.332 334.16H766.972C766.632 353.683 762.717 372.858 754.152 390.566C747.024 405.279 737.119 418.143 725.417 429.382V368.222H728.332V334.16Z" fill="#E22727"/>
<path opacity="0.1" d="M766.993 331.186H728.332V250.837H749.252C760.08 276.17 766.958 303.97 766.993 331.186Z" fill="#E22727"/>
<path opacity="0.1" d="M480.93 162.142H457.532V192.507H480.93V162.142Z" fill="#E22727"/>
<path opacity="0.1" d="M480.93 225.081H457.532V232.073H480.93V225.081Z" fill="#E22727"/>
<path opacity="0.1" d="M480.93 235.04H457.532V255.438H480.93V235.04Z" fill="#E22727"/>
<path opacity="0.1" d="M480.93 288.02H457.532V318.384H480.93V288.02Z" fill="#E22727"/>
<path opacity="0.1" d="M480.93 350.958H457.532V381.323H480.93V350.958Z" fill="#E22727"/>
<path opacity="0.1" d="M480.923 437.2C481.159 437.2 481.388 437.2 481.617 437.242H480.923V444.296H457.532V413.897H480.923V437.2Z" fill="#E22727"/>
<path opacity="0.1" d="M480.923 476.822V500.278C473.103 499.615 465.306 498.714 457.532 497.574V476.822H480.923Z" fill="#E22727"/>
<path opacity="0.1" d="M364.433 328.955H264.158V331.186H364.433V328.955Z" fill="#E22727"/>
<path opacity="0.1" d="M364.433 334.153H264.158V342.702H364.433V334.153Z" fill="#E22727"/>
<path opacity="0.1" d="M364.433 370.724H264.158V384.471H364.433V370.724Z" fill="#E22727"/>
<path opacity="0.1" d="M364.426 412.493V426.24H285.994C282.588 423.636 279.224 420.963 275.902 418.22C273.604 416.323 271.328 414.377 269.009 412.493H364.426Z" fill="#E22727"/>
<path opacity="0.1" d="M364.426 454.255V467.988H356.146C346.84 463.786 337.718 459.201 328.778 454.235L364.426 454.255Z" fill="#E22727"/>
<path opacity="0.1" d="M558.238 244.36H538.498V264.126H558.238V244.36Z" fill="#E22727"/>
<path opacity="0.1" d="M130.83 152.266H111.09V172.032H130.83V152.266Z" fill="#E22727"/>
<path opacity="0.1" d="M130.83 198.178H111.09V217.943H130.83V198.178Z" fill="#E22727"/>
<path opacity="0.1" d="M130.83 244.089H111.09V263.855H130.83V244.089Z" fill="#E22727"/>
<path opacity="0.1" d="M130.83 289.993H111.09V309.759H130.83V289.993Z" fill="#E22727"/>
<path opacity="0.1" d="M130.83 335.905H111.09V355.67H130.83V335.905Z" fill="#E22727"/>
<path opacity="0.1" d="M130.83 381.816H111.09V401.582H130.83V381.816Z" fill="#E22727"/>
<path opacity="0.1" d="M633.595 244.36H613.855V264.126H633.595V244.36Z" fill="#E22727"/>
<path opacity="0.1" d="M558.238 293.114H538.498V312.88H558.238V293.114Z" fill="#E22727"/>
<path opacity="0.1" d="M633.595 293.114H613.855V312.88H633.595V293.114Z" fill="#E22727"/>
<path opacity="0.1" d="M558.238 341.861H538.498V361.627H558.238V341.861Z" fill="#E22727"/>
<path opacity="0.1" d="M633.595 341.861H613.855V361.627H633.595V341.861Z" fill="#E22727"/>
<path opacity="0.1" d="M558.238 390.615H538.498V410.38H558.238V390.615Z" fill="#E22727"/>
<path opacity="0.1" d="M633.595 390.615H613.855V410.38H633.595V390.615Z" fill="#E22727"/>
<path opacity="0.1" d="M558.238 439.369H538.498V459.134H558.238V439.369Z" fill="#E22727"/>
<path opacity="0.1" d="M633.595 439.369H613.855V459.134H633.595V439.369Z" fill="#E22727"/>
<path opacity="0.1" d="M538.498 500.862V488.116H558.231V499.048L538.498 500.862Z" fill="#E22727"/>
<path opacity="0.1" d="M12.4937 207.366V218.673H80.0497V207.366H12.4937ZM19.2264 217.964H13.7153V208.061H19.268L19.2264 217.964ZM25.9521 217.964H20.3994V208.061H25.9521V217.964ZM32.664 217.964H27.1112V208.061H32.664V217.964ZM39.3897 217.964H33.8439V208.061H39.3967L39.3897 217.964ZM46.1086 217.964H40.5558V208.061H46.1086V217.964ZM52.8343 217.964H47.2816V208.061H52.8343V217.964ZM59.5601 217.964H54.0073V208.061H59.5601V217.964ZM66.2789 217.964H60.7261V208.061H66.2789V217.964ZM72.9977 217.964H67.445V208.061H72.9977V217.964ZM79.7165 217.964H74.1638V208.061H79.7165V217.964Z" fill="#E22727"/>
<path opacity="0.1" d="M12.4937 240.267V251.574H80.0497V240.267H12.4937ZM19.2264 250.858H13.7153V240.982H19.268L19.2264 250.858ZM25.9521 250.858H20.3994V240.982H25.9521V250.858ZM32.664 250.858H27.1112V240.982H32.664V250.858ZM39.3897 250.858H33.8439V240.982H39.3967L39.3897 250.858ZM46.1086 250.858H40.5558V240.982H46.1086V250.858ZM52.8343 250.858H47.2816V240.982H52.8343V250.858ZM59.5601 250.858H54.0073V240.982H59.5601V250.858ZM66.2789 250.858H60.7261V240.982H66.2789V250.858ZM72.9977 250.858H67.445V240.982H72.9977V250.858ZM79.7165 250.858H74.1638V240.982H79.7165V250.858Z" fill="#E22727"/>
<path opacity="0.1" d="M12.4937 273.182V284.51H80.0497V273.182H12.4937ZM19.2264 283.773H13.7153V273.89H19.268L19.2264 283.773ZM25.9521 283.773H20.3994V273.89H25.9521V283.773ZM32.664 283.773H27.1112V273.89H32.664V283.773ZM39.3897 283.773H33.8439V273.89H39.3967L39.3897 283.773ZM46.1086 283.773H40.5558V273.89H46.1086V283.773ZM52.8343 283.773H47.2816V273.89H52.8343V283.773ZM59.5601 283.773H54.0073V273.89H59.5601V283.773ZM66.2789 283.773H60.7261V273.89H66.2789V283.773ZM72.9977 283.773H67.445V273.89H72.9977V283.773ZM79.7165 283.773H74.1638V273.89H79.7165V283.773Z" fill="#E22727"/>
<path opacity="0.1" d="M12.4937 306.096V317.39H80.0497V306.096H12.4937ZM19.2264 316.688H13.7153V306.798H19.268L19.2264 316.688ZM25.9521 316.688H20.3994V306.798H25.9521V316.688ZM32.664 316.688H27.1112V306.798H32.664V316.688ZM39.3897 316.688H33.8439V306.798H39.3967L39.3897 316.688ZM46.1086 316.688H40.5558V306.798H46.1086V316.688ZM52.8343 316.688H47.2816V306.798H52.8343V316.688ZM59.5601 316.688H54.0073V306.798H59.5601V316.688ZM66.2789 316.688H60.7261V306.798H66.2789V316.688ZM72.9977 316.688H67.445V306.798H72.9977V316.688ZM79.7165 316.688H74.1638V306.798H79.7165V316.688Z" fill="#E22727"/>
<path opacity="0.1" d="M12.7852 339.004C13.0559 340.068 13.3612 341.131 13.6805 342.181V339.713H19.2333V349.596H16.2626C16.3528 349.825 16.443 350.076 16.5333 350.291H80.0497V339.004H12.7852ZM25.9729 349.596H20.4202V339.713H25.9729V349.596ZM32.6848 349.596H27.132V339.713H32.6848V349.596ZM39.4105 349.596H33.8439V339.713H39.3967L39.4105 349.596ZM46.1294 349.596H40.5766V339.713H46.1294V349.596ZM52.8551 349.596H47.3024V339.713H52.8551V349.596ZM59.5809 349.596H54.0281V339.713H59.5809V349.596ZM66.2997 349.596H60.7469V339.713H66.2997V349.596ZM73.0185 349.596H67.4658V339.713H73.0185V349.596ZM79.7373 349.596H74.1846V339.713H79.7373V349.596Z" fill="#E22727"/>
<path opacity="0.1" d="M28.4717 371.919C28.6452 372.142 28.8118 372.392 28.9922 372.614H32.664V377.361C33.0596 377.834 33.4483 378.306 33.8509 378.751V372.587H39.4036V382.504H37.1548C37.3769 382.733 37.5921 382.977 37.8489 383.199H80.0705V371.919H28.4717ZM46.1086 382.504H40.5558V372.628H46.1086V382.504ZM52.8343 382.504H47.2816V372.628H52.8343V382.504ZM59.5601 382.504H54.0073V372.628H59.5601V382.504ZM66.2789 382.504H60.7262V372.628H66.2789V382.504ZM72.9977 382.504H67.445V372.628H72.9977V382.504ZM79.7165 382.504H74.1638V372.628H79.7165V382.504Z" fill="#E22727"/>
<path opacity="0.1" d="M65.5293 404.827C66.1609 405.189 66.8064 405.522 67.4588 405.884V405.536H73.0116V408.664L74.1915 409.213V405.536H79.7443V411.548C79.8508 411.601 79.9624 411.643 80.0774 411.673V404.827H65.5293Z" fill="#E22727"/>
<path opacity="0.1" d="M436.313 332.826C436.445 333.271 436.556 333.716 436.681 334.153C436.57 333.716 436.452 333.271 436.313 332.826ZM104.447 127.983V130.951H135.452V127.983H104.447ZM436.313 332.826C436.445 333.271 436.556 333.716 436.681 334.153C436.57 333.716 436.452 333.271 436.313 332.826ZM436.313 332.826C436.445 333.271 436.556 333.716 436.681 334.153C436.57 333.716 436.452 333.271 436.313 332.826Z" fill="#E22727"/>
<path d="M320.393 263.869C320.393 263.869 317.658 263.486 317.658 259.497C317.658 255.508 315.701 248.057 315.701 248.057C315.701 248.023 314.007 235.082 311.668 233.025C309.329 230.968 306.324 218.889 306.324 218.889C306.324 218.889 305.81 212.335 304.762 210.924C303.714 209.513 302.298 206.059 300.209 201.131C298.12 196.204 289.409 192.791 289.409 192.791C289.409 192.791 273.66 183.645 269.197 180.664C268.791 180.419 268.412 180.132 268.065 179.809C267.288 178.787 263.901 178.766 263.901 178.766C263.547 176.529 263.207 173.957 263.096 171.629C263.096 171.379 263.096 171.128 263.061 170.878C268.038 167.933 271.786 163.289 273.618 157.799C273.701 157.534 273.771 157.256 273.847 156.992C274.145 156.894 274.42 156.734 274.653 156.524C274.886 156.313 275.073 156.056 275.201 155.769C275.603 154.873 275.61 153.823 276.11 152.989C276.693 152.002 277.804 151.474 278.678 150.73C280.885 148.854 281.454 145.692 281.35 142.814C281.281 140.486 280.906 138.137 281.052 135.823L281.094 135.239C281.135 134.891 281.184 134.544 281.246 134.21C281.586 132.487 282.329 130.861 282.746 129.151C283.162 127.441 283.204 125.516 282.232 124.043C280.809 121.881 277.845 121.45 275.242 121.228C272.292 120.978 269.655 121.304 267.767 118.851C266.883 117.569 265.889 116.366 264.796 115.258C264.408 114.896 260.632 112.589 260.632 112.436C256.946 110.727 252.769 110.406 248.867 111.533C246.91 112.103 245.063 113.034 243.078 113.5C238.796 114.514 233.868 113.416 230.23 115.869C228.204 117.259 226.989 119.47 225.851 121.624C224.925 123.399 223.986 125.171 223.033 126.941C221.499 129.853 219.937 132.813 219.292 136.038C219.156 136.74 219.072 137.451 219.042 138.165V138.2C219.042 138.457 219.042 138.714 219.042 138.971V139.298C219.042 139.541 219.042 139.777 219.083 139.993C219.125 140.208 219.118 140.278 219.139 140.424C219.16 140.57 219.194 140.896 219.236 141.119C219.278 141.341 219.361 141.73 219.444 142.036C219.479 142.168 219.528 142.293 219.569 142.418C219.639 142.655 219.722 142.884 219.812 143.113C219.861 143.231 219.909 143.357 219.965 143.475C220.069 143.718 220.194 143.954 220.319 144.17C220.374 144.267 220.416 144.357 220.472 144.448C220.665 144.771 220.878 145.082 221.11 145.379C222.595 147.235 224.782 148.416 226.399 150.154C226.399 150.223 226.399 150.293 226.399 150.355C226.399 150.55 226.399 150.737 226.399 150.932C226.485 154.807 227.515 158.602 229.4 161.988C231.284 165.373 233.967 168.246 237.213 170.357C237.213 170.621 237.248 170.892 237.262 171.156C237.397 173.219 237.371 175.29 237.185 177.349C236.903 177.015 236.549 176.75 236.15 176.572C235.751 176.394 235.317 176.308 234.881 176.32C234.583 176.306 234.284 176.331 233.992 176.397L233.93 176.348V176.41C232.403 176.786 230.522 178.377 228.724 182.902C228.724 182.902 223.255 189.073 219.09 188.816C214.926 188.559 204.382 195.238 204.382 195.238C204.382 195.238 194.096 201.924 191.889 208.735C190.655 212.597 189.176 216.376 187.46 220.049L174.745 246.285L172.399 267.1C172.399 267.1 173.697 276.358 173.44 277.768C173.183 279.179 178.777 291.905 178.777 291.905C178.777 291.905 197.261 324.423 204.813 326.091L205.354 325.709C205.677 325.878 206.02 326.007 206.375 326.091L207.929 324.993C208.023 326.217 207.983 327.448 207.811 328.663C206.77 331.874 208.2 352.828 210.019 356.935C211.837 361.043 211.192 414.898 211.192 414.898L210.935 419.652C210.935 419.652 210.935 419.804 210.997 420.069L210.935 421.194L211.122 421.292C211.317 422.8 211.253 424.33 210.935 425.816C210.282 427.901 210.019 433.795 210.019 433.795C210.019 433.795 204.82 467.071 207.284 473.757C209.748 480.443 211.844 487.768 211.844 487.768C211.844 487.768 214.447 496.108 211.969 497.533C209.491 498.957 202.446 501.348 203.897 504.823C205.215 508.034 210.22 516.638 210.962 517.896L210.9 518.556L209.88 529.628C210.045 531.089 210.441 532.516 211.053 533.853C212.17 536.265 214.343 538.767 218.473 538.496C219.167 538.447 219.972 538.364 220.749 538.259C228.308 537.245 237.616 533.867 237.616 533.867C237.132 533.56 236.689 533.193 236.297 532.776C235.925 532.415 235.631 531.983 235.432 531.505C235.232 531.027 235.132 530.514 235.138 529.996C235.249 527.98 231.48 518.376 230.543 516.013C230.397 515.672 230.321 515.477 230.321 515.477C230.321 515.477 238.914 506.484 237.484 498.513C237.484 498.513 227.975 492.953 231.105 489.902C234.235 486.851 239.83 478.087 239.83 478.087C239.83 478.087 240.087 445.318 239.83 440.425C239.562 437.029 239.723 433.613 240.309 430.257C240.413 429.75 240.538 429.256 240.67 428.77C244.999 429.417 249.369 429.749 253.746 429.764C255.343 429.764 256.967 429.764 258.605 429.666C258.605 430.13 258.626 430.63 258.667 431.168C259.028 439.285 259.702 453.519 260.25 458.808C261.027 466.39 265.324 486.823 265.324 486.823C265.324 486.823 257.127 492.091 266.754 505.073C266.754 505.073 266.754 509.778 266.115 510.46C265.433 512.686 264.884 514.951 264.47 517.243C264.067 519.689 263.901 522.163 264.553 523.449C266.115 526.521 275.485 526.271 275.485 526.271L275.714 526.229C277.483 526.046 279.271 526.216 280.974 526.731C282.676 527.245 284.26 528.092 285.633 529.224C289.194 532.088 302.708 530.83 310.023 529.919C312.89 529.558 314.806 529.224 314.806 529.224C314.899 528.9 314.931 528.56 314.903 528.224C314.826 526.424 313.417 522.476 303.867 518.952C303.867 518.952 294.885 512.906 295.01 507.638H294.823H293.782C294.538 507.596 295.024 507.638 295.024 507.638C295.024 507.638 291.505 494.78 292.942 493.738C294.379 492.696 290.075 478.448 290.075 478.448C290.075 478.448 287.611 454.54 287.479 452.865C287.485 451.428 287.702 450 288.125 448.626L287.479 435.518C287.479 435.518 287.354 431.161 287.479 429.743C287.458 428.512 287.358 427.284 287.181 426.066C287.118 425.58 287.056 425.073 286.986 424.572C290.353 423.717 292.539 422.925 292.539 422.925L292.15 377.299C295.01 371.739 295.538 359.542 295.524 350.889C295.524 345.329 295.274 341.215 295.274 341.215L299.182 334.828C299.182 334.828 300.084 327.183 298.654 325.508C298.022 324.75 298.307 323.965 298.828 323.318C299.098 323.104 299.383 322.909 299.681 322.735C299.681 322.735 299.64 322.672 299.591 322.582C299.864 322.353 300.154 322.147 300.459 321.963C300.459 321.963 299.071 319.809 300.313 318.898C301.479 319.691 302.52 320.288 303.311 320.775C303.256 321.282 303.2 321.574 303.2 321.574L303.534 320.879C304.297 321.31 304.762 321.574 304.762 321.574C304.762 321.574 310.884 309.363 310.752 307.563C310.62 305.763 314.917 298.18 314.917 298.18C314.917 298.18 315.437 294.198 317.783 292.53C320.129 290.862 319.602 278.776 319.602 278.776C319.602 278.776 320.254 272.48 321.816 269.908C323.378 267.337 320.393 263.869 320.393 263.869ZM203.258 258.51L203.376 261.422C202.682 260.303 202.182 259.497 202.182 259.497L203.258 258.51Z" fill="url(#paint0_linear_1_41)"/>
<path d="M305.095 316.299L303.596 322.693C303.596 322.693 291.588 316.556 289.423 308.758C287.257 300.96 293.046 298 293.046 298L304.235 302.747L305.095 316.299Z" fill="white"/>
<path opacity="0.1" d="M305.095 316.299L303.596 322.693C303.596 322.693 291.588 316.556 289.423 308.758C287.257 300.96 293.046 298 293.046 298L304.235 302.747L305.095 316.299Z" fill="black"/>
<path d="M237.706 533.909C237.706 533.909 226.6 537.995 218.965 538.51C214.912 538.781 212.781 536.293 211.684 533.895C211.085 532.562 210.699 531.143 210.539 529.69L211.532 518.674L212.059 512.809L228.28 508.59L230.578 515.623L230.793 516.159C231.716 518.508 235.415 528.064 235.304 530.058C235.3 530.569 235.398 531.076 235.594 531.547C235.789 532.019 236.078 532.446 236.443 532.804C236.815 533.224 237.24 533.596 237.706 533.909Z" fill="white"/>
<path d="M313.563 528.307C313.591 528.641 313.558 528.978 313.466 529.301C313.466 529.301 289.714 533.269 284.856 529.301C283.486 528.142 281.889 527.282 280.168 526.777C278.446 526.272 276.639 526.132 274.861 526.368C274.861 526.368 265.671 526.618 264.137 523.588C263.498 522.316 263.665 519.849 264.061 517.416C264.464 515.137 265.002 512.884 265.671 510.668L266.039 510.376L268.225 508.618L293.823 507.86H294.018C293.893 513.101 302.708 519.112 302.708 519.112C312.071 522.587 313.452 526.514 313.563 528.307Z" fill="white"/>
<path opacity="0.1" d="M313.563 528.307C313.588 528.642 313.552 528.978 313.459 529.301C313.459 529.301 289.714 533.269 284.856 529.301C283.487 528.142 281.891 527.283 280.171 526.778C278.451 526.273 276.645 526.133 274.868 526.368C274.868 526.368 265.671 526.618 264.144 523.588C263.505 522.309 263.665 519.849 264.061 517.416C267.6 517.771 273.188 518.654 275.381 520.759C278.699 523.963 284.321 527.16 287.771 527.41C290.471 527.584 306.622 528.098 313.563 528.307Z" fill="black"/>
<path opacity="0.1" d="M237.706 533.909C237.706 533.909 226.6 537.995 218.965 538.51C214.912 538.781 212.781 536.293 211.691 533.888C214.516 534.84 218.438 535.841 220.499 534.923C222.943 533.839 231.605 533.137 236.463 532.838C236.833 533.244 237.25 533.603 237.706 533.909Z" fill="black"/>
<path d="M254.184 204.586C245.022 201.02 233.236 189.24 236.179 183.736C236.832 182.347 237.221 180.848 237.324 179.316C237.513 177.236 237.541 175.145 237.407 173.061C237.201 169.648 236.791 166.25 236.179 162.886C236.179 162.886 264.782 163.532 263.117 167.751C262.631 168.988 262.554 171.135 262.686 173.54C262.818 175.945 263.165 178.662 263.526 180.963C264.026 184.118 264.526 186.523 264.526 186.523C264.526 186.523 262.776 188.976 261.749 189.108C260.722 189.24 267.33 209.666 254.184 204.586Z" fill="#CF6F80"/>
<path opacity="0.1" d="M230.772 516.159L230.557 516.395C222.005 506.039 211.664 518.945 211.664 518.945L211.511 518.674L212.038 512.809L228.259 508.59L230.557 515.623L230.772 516.159Z" fill="black"/>
<path opacity="0.1" d="M294.025 508.59C294.025 508.59 287.778 508.458 284.446 511.405C281.114 514.352 265.011 512.044 265.706 511.405C265.911 511.088 266.035 510.725 266.066 510.348L268.253 508.59L293.851 507.833C293.948 508.298 294.025 508.59 294.025 508.59Z" fill="black"/>
<path d="M241.412 427.269C240.947 428.42 240.594 429.614 240.357 430.834C239.778 434.174 239.618 437.573 239.878 440.953C240.135 445.818 239.878 478.42 239.878 478.42C239.878 478.42 234.388 487.115 231.327 490.18C228.266 493.245 237.574 498.749 237.574 498.749C238.962 506.672 230.55 515.623 230.55 515.623C221.999 505.268 211.657 518.181 211.657 518.181C211.657 518.181 206.034 508.451 204.632 504.976C203.23 501.501 210.123 499.096 212.545 497.686C214.967 496.275 212.427 487.956 212.427 487.956C212.427 487.956 210.379 480.665 207.95 474.014C205.521 467.363 210.629 434.253 210.629 434.253C210.629 434.253 210.893 428.374 211.525 426.324C211.843 424.844 211.907 423.321 211.712 421.82C211.67 421.313 211.622 420.889 211.587 420.604C211.552 420.319 211.525 420.187 211.525 420.187L211.622 420.02L215.092 413.543C215.092 413.543 243.078 423.189 241.412 427.269Z" fill="#277DE2"/>
<path d="M294.025 507.826C294.025 507.826 287.778 507.693 284.446 510.606C281.114 513.518 265.011 511.245 265.706 510.606C266.4 509.966 266.344 505.233 266.344 505.233C256.898 492.32 264.956 487.08 264.956 487.08C264.956 487.08 260.736 466.751 259.972 459.211C259.438 453.943 258.779 439.786 258.425 431.703C258.272 428.228 258.182 425.837 258.182 425.837L265.9 424.28L266.892 424.079L285.508 420.34C285.508 420.34 286.022 423.815 286.369 426.657C286.542 427.871 286.639 429.094 286.66 430.32C286.535 431.71 286.66 436.06 286.66 436.06L287.292 449.105C286.879 450.474 286.666 451.895 286.66 453.324C286.785 454.985 289.208 478.768 289.208 478.768C289.208 478.768 293.421 492.96 291.984 493.981C290.547 495.003 294.025 507.826 294.025 507.826Z" fill="#277DE2"/>
<path opacity="0.1" d="M263.117 167.751C262.631 168.988 262.554 171.135 262.686 173.54C258.855 175.85 254.45 177.031 249.979 176.948C245.507 176.864 241.15 175.519 237.407 173.068C237.201 169.652 236.791 166.252 236.179 162.886C236.179 162.886 264.782 163.518 263.117 167.751Z" fill="black"/>
<path d="M274.173 152.391C274.179 154.896 273.785 157.385 273.007 159.765C271.268 165.098 267.703 169.644 262.94 172.6C258.177 175.555 252.525 176.729 246.981 175.915C241.438 175.101 236.36 172.35 232.646 168.15C228.931 163.95 226.82 158.57 226.684 152.961C226.684 152.767 226.684 152.586 226.684 152.391C226.63 149.234 227.204 146.098 228.373 143.166C229.543 140.234 231.283 137.564 233.494 135.312C235.705 133.061 238.341 131.272 241.249 130.052C244.157 128.831 247.279 128.202 250.432 128.202C253.585 128.202 256.707 128.831 259.615 130.052C262.523 131.272 265.159 133.061 267.37 135.312C269.581 137.564 271.321 140.234 272.491 143.166C273.66 146.098 274.234 149.234 274.18 152.391H274.173Z" fill="#CF6F80"/>
<path opacity="0.1" d="M254.184 204.586C245.022 201.02 233.236 189.24 236.179 183.736C236.832 182.347 237.221 180.848 237.324 179.316L249.866 189.636L257.626 196.009L263.526 180.97C264.026 184.125 264.526 186.53 264.526 186.53C264.526 186.53 262.776 188.983 261.749 189.115C260.722 189.247 267.33 209.666 254.184 204.586Z" fill="black"/>
<path d="M286.619 250.198L276.145 426.379L262.485 427.276L227.114 325.118L232.917 203.835L234.138 178.21L249.866 191.144L257.633 197.517L263.707 182.04L274.999 191.895L286.619 250.198Z" fill="#E22727"/>
<path opacity="0.1" d="M241.412 427.269C240.947 428.42 240.594 429.614 240.357 430.834C230.418 429.297 220.764 426.278 211.719 421.876L211.532 421.778L211.594 420.659L211.629 420.076L215.099 413.598C215.099 413.598 243.078 423.189 241.412 427.269Z" fill="black"/>
<path opacity="0.1" d="M266.06 430.862C263.519 431.294 260.956 431.587 258.383 431.738C258.23 428.263 258.14 425.872 258.14 425.872L265.858 424.315L266.06 430.862Z" fill="black"/>
<path opacity="0.1" d="M286.327 426.692C281.392 427.978 273.771 429.423 266.948 428.52L266.851 424.113L285.466 420.374C285.466 420.374 285.98 423.815 286.327 426.692Z" fill="black"/>
<path opacity="0.1" d="M266.823 429.326C238.365 434.191 212.302 420.242 212.302 420.242L212.552 415.516C212.552 415.516 213.197 361.939 211.407 357.832C209.616 353.724 208.221 332.895 209.234 329.698C210.248 326.501 205.535 278.561 205.535 278.561L204.771 259.101L176.827 247.766L189.321 221.689C191.008 218.033 192.46 214.273 193.666 210.43C195.838 203.661 205.923 197.01 205.923 197.01C205.923 197.01 216.265 190.366 220.354 190.616C224.442 190.866 229.8 184.736 229.8 184.736C233.756 174.638 237.338 179.211 237.338 179.211C237.338 179.691 237.338 179.211 237.144 180.706C235.755 191.791 259.591 226.818 259.931 227.437L262.2 282.8L264.498 352.863L266.823 429.326Z" fill="black"/>
<path d="M266.06 429.326C237.602 434.191 211.532 420.242 211.532 420.242L211.788 415.516C211.788 415.516 212.434 361.939 210.636 357.832C208.839 353.724 207.45 332.895 208.471 329.698C209.491 326.501 204.771 278.561 204.771 278.561L204.001 259.101L176.043 247.724L188.536 221.648C190.22 217.99 191.671 214.23 192.881 210.389C195.047 203.62 205.139 196.968 205.139 196.968C205.139 196.968 215.481 190.324 219.562 190.574C223.644 190.825 229.009 184.695 229.009 184.695C232.972 174.597 237.338 179.17 237.338 179.17C237.338 179.649 236.922 179.865 237.144 180.664C240.198 191.415 258.827 226.777 259.167 227.395L261.465 282.759L263.762 352.821L266.06 429.326Z" fill="white"/>
<path opacity="0.1" d="M258.39 228.973C255.329 227.694 239.115 209.159 239.115 209.159V204.94C238.525 203.55 235.02 204.398 232.174 205.371L233.396 179.746L234.784 180.9C237.824 191.645 258.036 228.354 258.39 228.973Z" fill="black"/>
<path d="M259.16 227.437C256.092 226.158 239.878 207.623 239.878 207.623V203.404C239.288 202.014 235.783 202.862 232.937 203.835L234.166 178.21L235.554 179.364C238.601 190.109 258.82 226.825 259.16 227.437Z" fill="white"/>
<path opacity="0.1" d="M212.302 319.878C212.684 319.878 232.091 317.835 232.091 317.835C232.091 317.835 243.842 340.971 243.071 346.601C242.301 352.23 240.906 357.213 236.179 356.331C231.452 355.448 210.74 357.026 210.74 357.026L212.302 319.878Z" fill="black"/>
<path d="M211.532 318.342C211.913 318.342 231.32 316.299 231.32 316.299C231.32 316.299 243.064 339.442 242.301 345.065C241.537 350.687 240.128 355.677 235.408 354.795C230.689 353.912 209.97 355.49 209.97 355.49L211.532 318.342Z" fill="white"/>
<path d="M226.156 307.479C226.156 307.479 243.967 317.063 244.348 319.989C244.73 322.915 235.283 318.711 233.243 318.203C231.9 317.879 230.532 317.665 229.155 317.564L215.543 317.932L226.156 307.479Z" fill="#CF6F80"/>
<path opacity="0.1" d="M253.42 230.168C254.455 230.168 255.294 229.328 255.294 228.292C255.294 227.255 254.455 226.415 253.42 226.415C252.385 226.415 251.546 227.255 251.546 228.292C251.546 229.328 252.385 230.168 253.42 230.168Z" fill="black"/>
<path d="M253.42 229.404C254.455 229.404 255.294 228.564 255.294 227.527C255.294 226.491 254.455 225.651 253.42 225.651C252.385 225.651 251.546 226.491 251.546 227.527C251.546 228.564 252.385 229.404 253.42 229.404Z" fill="#3F3D56"/>
<path opacity="0.1" d="M256.87 311.399C257.905 311.399 258.744 310.559 258.744 309.523C258.744 308.486 257.905 307.646 256.87 307.646C255.835 307.646 254.996 308.486 254.996 309.523C254.996 310.559 255.835 311.399 256.87 311.399Z" fill="black"/>
<path d="M256.87 310.628C257.905 310.628 258.744 309.788 258.744 308.751C258.744 307.715 257.905 306.875 256.87 306.875C255.835 306.875 254.996 307.715 254.996 308.751C254.996 309.788 255.835 310.628 256.87 310.628Z" fill="#3F3D56"/>
<path opacity="0.1" d="M255.287 270.784C256.322 270.784 257.161 269.944 257.161 268.907C257.161 267.871 256.322 267.031 255.287 267.031C254.252 267.031 253.413 267.871 253.413 268.907C253.413 269.944 254.252 270.784 255.287 270.784Z" fill="black"/>
<path d="M255.287 270.019C256.322 270.019 257.161 269.179 257.161 268.143C257.161 267.106 256.322 266.266 255.287 266.266C254.252 266.266 253.413 267.106 253.413 268.143C253.413 269.179 254.252 270.019 255.287 270.019Z" fill="#3F3D56"/>
<path d="M298.488 317.175C298.488 317.175 299.765 319.093 298.488 319.989C297.21 320.886 298.612 323.054 298.612 323.054C298.612 323.054 295.427 324.924 296.829 326.606C298.231 328.288 297.342 335.884 297.342 335.884L293.511 342.236C293.511 342.236 293.74 346.33 293.754 351.862C293.754 360.494 293.247 372.628 290.443 378.16L290.832 423.55C290.832 423.55 277.415 428.457 266.184 426.963L264.519 354.127C264.519 354.127 266.948 312.824 267.843 304.901C268.367 300.788 268.581 296.641 268.482 292.495C268.482 292.495 268.1 280.097 266.816 274.342C266.816 274.342 265.428 249.413 265.289 242.511C265.227 239.21 265.4 229.578 265.595 220.417C265.81 210.403 266.053 200.958 266.053 200.958L263.519 180.886C263.519 180.886 266.053 180.629 266.816 181.651C267.158 181.971 267.53 182.257 267.927 182.506C272.299 185.466 287.75 194.571 287.75 194.571C287.75 194.571 296.301 197.976 298.349 202.855C300.396 207.734 301.819 211.195 302.812 212.585C303.804 213.975 304.346 220.508 304.346 220.508C304.346 220.508 307.289 232.531 309.586 234.568C311.884 236.604 313.563 249.559 313.563 249.559L293.261 265.543C293.261 265.543 291.477 292.134 291.095 293.163C290.714 294.191 298.488 317.175 298.488 317.175Z" fill="white"/>
<path d="M299.258 317.175C299.258 317.175 300.528 319.093 299.258 319.989C297.988 320.886 299.376 323.054 299.376 323.054C299.376 323.054 296.211 324.945 297.599 326.627C298.987 328.308 298.113 335.905 298.113 335.905L294.281 342.257C294.281 342.257 294.51 346.351 294.531 351.883C294.531 360.515 294.025 372.649 291.22 378.181L291.602 423.571C291.602 423.571 278.165 428.478 266.948 426.984L265.289 354.148C265.289 354.148 267.718 312.845 268.614 304.922C269.138 300.809 269.35 296.662 269.245 292.516C269.245 292.516 268.864 280.118 267.587 274.363C267.587 274.363 266.198 249.434 266.053 242.532C265.99 239.231 266.171 229.598 266.358 220.438C266.573 210.423 266.816 200.979 266.816 200.979L263.471 180.636C263.471 180.636 266.816 180.636 267.587 181.672C267.925 181.995 268.298 182.282 268.697 182.526C273.07 185.487 288.527 194.592 288.527 194.592C288.527 194.592 297.072 197.997 299.119 202.876C301.167 207.755 302.59 211.216 303.589 212.606C304.589 213.996 305.116 220.529 305.116 220.529C305.116 220.529 308.059 232.552 310.357 234.588C312.654 236.625 314.313 249.552 314.313 249.552L294.011 265.537C294.011 265.537 292.227 292.127 291.838 293.156C291.449 294.184 299.258 317.175 299.258 317.175Z" fill="white"/>
<path opacity="0.1" d="M274.944 206.879L276.776 212.23L267.128 221.96C267.344 211.952 267.587 202.501 267.587 202.501L264.241 182.158C264.241 182.158 267.587 182.158 268.357 183.194C268.695 183.516 269.067 183.801 269.468 184.041L277.672 207.741L274.944 206.879Z" fill="black"/>
<path d="M274.173 205.343L276.013 210.695L266.365 220.424C266.58 210.41 266.823 200.965 266.823 200.965L263.471 180.622C263.471 180.622 266.823 180.622 267.587 181.658C267.927 181.979 268.299 182.266 268.697 182.513L276.908 206.205L274.173 205.343Z" fill="white"/>
<path opacity="0.1" d="M274.173 152.391C274.179 154.896 273.785 157.385 273.007 159.765C272.876 159.786 272.742 159.78 272.614 159.748C272.485 159.715 272.364 159.658 272.258 159.578C272.077 153.323 269.002 147.45 265.22 142.453C264.158 140.944 262.87 139.608 261.402 138.492C259.918 137.375 258.072 136.853 256.224 137.025C254.142 137.31 252.303 138.728 250.2 138.909C247.423 139.138 244.938 137.213 242.183 137.115C241.063 137.126 239.957 137.376 238.941 137.848C237.925 138.32 237.021 139.004 236.29 139.854C234.842 141.568 233.767 143.566 233.132 145.719C232.04 148.985 231.446 152.396 231.369 155.839C231.334 157.785 231.147 160.224 229.342 160.933C229.478 159.502 229.315 158.058 228.865 156.693C228.415 155.328 227.686 154.071 226.725 153.003L226.684 152.961C226.684 152.767 226.684 152.586 226.684 152.391C226.63 149.234 227.204 146.098 228.373 143.166C229.543 140.234 231.283 137.564 233.494 135.312C235.705 133.061 238.341 131.272 241.249 130.052C244.157 128.831 247.279 128.202 250.432 128.202C253.585 128.202 256.707 128.831 259.615 130.052C262.523 131.272 265.159 133.061 267.37 135.312C269.581 137.564 271.321 140.234 272.491 143.166C273.66 146.098 274.234 149.234 274.18 152.391H274.173Z" fill="black"/>
<path d="M260.264 114.632C256.657 112.934 252.555 112.612 248.728 113.729C246.805 114.299 244.994 115.223 243.043 115.689C238.879 116.697 234.02 115.605 230.446 118.045C228.461 119.435 227.267 121.631 226.156 123.765L223.38 129.06C221.867 131.959 220.34 134.905 219.708 138.095C219.076 141.285 219.458 144.858 221.478 147.422C222.949 149.292 225.122 150.466 226.718 152.225C227.675 153.294 228.4 154.55 228.849 155.913C229.298 157.277 229.461 158.718 229.328 160.148C231.14 159.453 231.313 157.006 231.355 155.06C231.432 151.618 232.027 148.206 233.118 144.941C233.751 142.787 234.827 140.789 236.276 139.075C237.008 138.226 237.912 137.543 238.928 137.071C239.944 136.599 241.049 136.349 242.169 136.337C244.945 136.434 247.437 138.353 250.186 138.123C252.268 137.949 254.114 136.525 256.21 136.247C258.059 136.072 259.905 136.595 261.388 137.713C262.856 138.828 264.141 140.164 265.199 141.675C268.989 146.672 272.063 152.53 272.244 158.799C273.028 159.376 274.16 158.626 274.548 157.736C274.937 156.846 274.951 155.804 275.444 154.956C276.013 153.976 277.103 153.455 277.956 152.718C280.122 150.849 280.663 147.7 280.58 144.844C280.497 141.987 279.941 139.089 280.483 136.281C280.809 134.558 281.545 132.945 281.947 131.243C282.35 129.54 282.398 127.629 281.448 126.162C280.059 124.008 277.137 123.584 274.59 123.382C271.696 123.132 269.107 123.452 267.26 121.012C266.394 119.739 265.418 118.544 264.345 117.44C263.977 117.079 260.264 114.785 260.264 114.632Z" fill="#512E4E"/>
<path opacity="0.1" d="M184.823 261.193L177.57 247.766L175.272 268.483C175.272 268.483 176.549 277.685 176.293 279.096C176.036 280.507 181.526 293.156 181.526 293.156C181.526 293.156 199.663 325.501 207.069 327.169L232.091 309.266L225.455 300.828C225.455 300.828 223.158 299.932 222.582 300.828C222.582 300.828 210.261 279.603 208.984 278.067C207.707 276.531 207.957 273.466 207.957 273.466C207.957 273.466 206.041 271.423 206.68 269.505C207.318 267.587 202.98 260.936 202.98 260.936L206.937 257.231L184.823 261.193Z" fill="black"/>
<path d="M177.951 246.237L176.036 247.766L173.738 268.483C173.738 268.483 175.015 277.685 174.759 279.096C174.502 280.507 179.999 293.156 179.999 293.156C179.999 293.156 198.129 325.501 205.535 327.169L230.564 309.266L223.921 300.828C223.921 300.828 221.624 299.932 221.048 300.828C221.048 300.828 208.727 279.603 207.45 278.067C206.173 276.531 206.43 273.466 206.43 273.466C206.43 273.466 204.514 271.423 205.153 269.505C205.791 267.587 201.446 260.936 201.446 260.936L205.403 257.231L177.951 246.237Z" fill="white"/>
<path opacity="0.1" d="M296.829 327.398C298.217 329.087 297.342 336.669 297.342 336.669L293.511 343.021C293.511 343.021 293.74 347.122 293.754 352.647L287.313 354.663C286.731 354.845 286.113 354.885 285.513 354.779C284.912 354.674 284.345 354.426 283.859 354.057C283.374 353.688 282.983 353.207 282.721 352.656C282.458 352.105 282.331 351.499 282.35 350.889L283.46 315.02L298.488 320.775C297.21 321.664 298.612 323.847 298.612 323.847C298.612 323.847 295.427 325.709 296.829 327.398Z" fill="black"/>
<path d="M297.599 326.627C298.987 328.315 298.113 335.905 298.113 335.905L294.281 342.257C294.281 342.257 294.51 346.351 294.531 351.883L287.972 353.933C287.402 354.11 286.798 354.149 286.21 354.045C285.622 353.941 285.067 353.699 284.592 353.337C284.117 352.975 283.734 352.505 283.477 351.966C283.22 351.426 283.095 350.833 283.113 350.236L284.231 314.256L299.265 320.01C297.981 320.9 299.383 323.075 299.383 323.075C299.383 323.075 296.211 324.945 297.599 326.627Z" fill="white"/>
<path d="M302.576 309.53C302.576 309.53 301.555 316.056 299.001 316.438C296.447 316.82 295.302 326.995 292.754 326.633C290.207 326.272 291.894 317.175 291.984 315.409C292.074 313.644 289.208 306.333 291.352 304.672C293.497 303.011 300.285 304.672 300.285 304.672L302.576 309.53Z" fill="#CF6F80"/>
<path opacity="0.1" d="M308.01 259.275L312.828 249.545C312.828 249.545 314.743 256.96 314.743 260.922C314.743 264.883 317.422 265.272 317.422 265.272C317.422 265.272 320.358 268.747 318.811 271.277C317.263 273.807 316.638 280.104 316.638 280.104C316.638 280.104 317.145 292.12 314.847 293.781C312.55 295.442 312.071 299.411 312.071 299.411C312.071 299.411 307.851 306.951 307.983 308.744C308.115 310.537 302.111 322.679 302.111 322.679C302.111 322.679 305.047 307.591 287.937 301.072C287.937 301.072 287.805 295.95 289.083 294.546C290.36 293.142 292.352 292.502 291.102 285.406C289.853 278.311 290.741 269.832 290.741 268.129C290.741 266.426 294.573 255.807 294.573 255.807L308.01 259.275Z" fill="black"/>
<path d="M310.093 248.155L314.299 249.545C314.299 249.545 316.222 256.96 316.222 260.922C316.222 264.883 318.901 265.272 318.901 265.272C318.901 265.272 321.837 268.747 320.289 271.277C318.741 273.807 318.123 280.104 318.123 280.104C318.123 280.104 318.63 292.12 316.333 293.781C314.035 295.442 313.522 299.411 313.522 299.411C313.522 299.411 309.308 306.951 309.44 308.744C309.572 310.537 303.561 322.679 303.561 322.679C303.561 322.679 306.504 307.591 289.388 301.072C289.388 301.072 289.263 295.95 290.54 294.546C291.817 293.142 293.809 292.502 292.56 285.406C291.311 278.311 292.199 269.832 292.199 268.129C292.199 266.426 296.03 255.807 296.03 255.807L310.093 248.155Z" fill="white"/>
<path opacity="0.1" d="M217.188 500.347C217.188 500.347 223.893 496.129 228.294 499.194C232.695 502.259 217.188 500.347 217.188 500.347Z" fill="black"/>
<path opacity="0.1" d="M269.287 487.302C269.287 487.302 275.222 486.538 280.205 491.91C285.189 497.282 269.287 487.302 269.287 487.302Z" fill="black"/>
<g opacity="0.1">
<path d="M277.97 151.196C277.116 151.933 276.02 152.461 275.451 153.441C274.965 154.282 274.951 155.317 274.562 156.221C274.173 157.124 273.042 157.861 272.258 157.291C272.077 151.036 268.996 145.163 265.213 140.16C264.155 138.649 262.87 137.313 261.402 136.198C259.917 135.08 258.068 134.557 256.217 134.732C254.135 135.017 252.303 136.434 250.199 136.608C247.423 136.844 244.931 134.919 242.176 134.822C241.056 134.833 239.952 135.084 238.936 135.557C237.921 136.031 237.019 136.716 236.29 137.567C234.841 139.278 233.765 141.274 233.132 143.426C232.041 146.692 231.447 150.103 231.369 153.545C231.327 155.484 231.147 157.903 229.356 158.626C229.398 159.139 229.398 159.655 229.356 160.168C231.161 159.473 231.341 157.027 231.383 155.081C231.46 151.639 232.054 148.227 233.146 144.962C233.779 142.808 234.855 140.81 236.304 139.096C237.034 138.247 237.937 137.564 238.952 137.092C239.967 136.62 241.071 136.37 242.19 136.358C244.966 136.455 247.465 138.373 250.213 138.144C252.296 137.97 254.142 136.546 256.231 136.268C258.082 136.093 259.93 136.616 261.416 137.734C262.883 138.849 264.169 140.185 265.227 141.695C269.009 146.692 272.091 152.551 272.272 158.82C273.056 159.397 274.187 158.646 274.576 157.757C274.965 156.867 274.979 155.825 275.464 154.977C276.034 153.997 277.13 153.476 277.984 152.739C280.15 150.869 280.691 147.721 280.608 144.865C280.608 144.774 280.608 144.684 280.608 144.601C280.476 147.075 279.816 149.598 277.97 151.196Z" fill="black"/>
<path d="M226.732 150.703C225.136 148.944 222.956 147.77 221.492 145.907C220.259 144.258 219.554 142.273 219.472 140.215C219.254 142.787 219.971 145.352 221.492 147.436C222.956 149.306 225.136 150.48 226.732 152.239C228.265 153.958 229.185 156.139 229.349 158.438C229.455 157.039 229.278 155.632 228.829 154.303C228.379 152.974 227.666 151.749 226.732 150.703Z" fill="black"/>
<path d="M281.961 129.721C281.552 131.423 280.823 133.043 280.49 134.759C280.292 135.907 280.22 137.072 280.275 138.234C280.298 137.572 280.37 136.912 280.49 136.261C280.823 134.537 281.552 132.925 281.961 131.222C282.2 130.283 282.277 129.31 282.19 128.345C282.147 128.808 282.071 129.268 281.961 129.721Z" fill="black"/>
</g>
<path opacity="0.1" d="M92.1269 528.606C129.479 528.606 159.759 523.736 159.759 517.729C159.759 511.722 129.479 506.853 92.1269 506.853C54.7745 506.853 24.4945 511.722 24.4945 517.729C24.4945 523.736 54.7745 528.606 92.1269 528.606Z" fill="#E22727"/>
<path d="M94.3064 309.37H89.9544V407.482H94.3064V309.37Z" fill="#535461"/>
<path d="M121.654 407.183L121.383 411.604L120.994 417.859L120.835 420.458L120.453 426.713L120.286 429.312L119.898 435.567L115.511 506.505C115.32 509.557 113.975 512.422 111.75 514.516C109.524 516.61 106.585 517.777 103.531 517.778H80.723C77.6695 517.777 74.7314 516.61 72.5069 514.516C70.2824 512.421 68.9388 509.557 68.7499 506.505L64.384 435.518L63.9953 429.263L63.8357 426.664L63.447 420.409L63.2874 417.81L62.8987 411.555L62.621 407.135C62.5728 406.284 62.6987 405.432 62.991 404.632C63.2832 403.832 63.7357 403.1 64.3207 402.481C64.9056 401.862 65.6107 401.369 66.3926 401.033C67.1746 400.697 68.0169 400.524 68.8679 400.525H115.518C116.366 400.533 117.203 400.714 117.978 401.058C118.753 401.402 119.45 401.901 120.025 402.525C120.6 403.149 121.041 403.884 121.321 404.685C121.601 405.486 121.714 406.337 121.654 407.183Z" fill="#3F3D56"/>
<path d="M121.383 411.604L120.994 417.838H63.2596L62.8709 411.604H121.383Z" fill="#9D9CB5"/>
<path d="M120.835 420.437L120.453 426.678H63.8079L63.4192 420.437H120.835Z" fill="#9D9CB5"/>
<path d="M120.286 429.284L119.904 435.518H64.3562L63.9676 429.284H120.286Z" fill="#9D9CB5"/>
<path d="M56.2285 346.142C81.5698 364.504 92.1477 393.221 92.1477 393.221C92.1477 393.221 61.6077 392.172 36.2594 373.81C10.9112 355.448 0.354004 326.738 0.354004 326.738C0.354004 326.738 30.8802 327.78 56.2285 346.142Z" fill="#E22727"/>
<path d="M0.333191 326.738C0.333191 326.738 32.0393 344.356 42.2078 358.944C52.3762 373.532 92.1477 393.221 92.1477 393.221" stroke="#535461" stroke-width="2" stroke-miterlimit="10"/>
<path d="M72.5882 309.154C86.3798 319.141 92.1477 334.772 92.1477 334.772C92.1477 334.772 75.5242 334.202 61.7257 324.215C47.9271 314.228 42.1731 298.591 42.1731 298.591C42.1731 298.591 58.7896 299.16 72.5882 309.154Z" fill="#E22727"/>
<path d="M42.1731 298.591C42.1731 298.591 59.4282 308.181 64.9601 316.118C70.492 324.055 92.1477 334.772 92.1477 334.772" stroke="#535461" stroke-width="2" stroke-miterlimit="10"/>
<path d="M112.172 333.98C96.3262 351.417 92.9737 374.206 92.9737 374.206C92.9737 374.206 115.317 368.715 131.149 351.271C146.981 333.827 150.347 311.045 150.347 311.045C150.347 311.045 128.018 316.542 112.172 333.98Z" fill="#E22727"/>
<path d="M150.361 311.052C150.361 311.052 129.719 328.927 124.472 341.242C119.224 353.558 92.9737 374.206 92.9737 374.206" stroke="#535461" stroke-width="2" stroke-miterlimit="10"/>
<path d="M693.863 327.843C693.863 327.843 682.404 270.756 686.791 263.653C686.791 263.653 686.95 257.051 686.686 248.634C686.686 248.315 686.686 247.995 686.686 247.668C687.458 248.183 688.263 248.648 689.095 249.058C693.137 251.137 697.777 251.737 702.213 250.754L698.743 246.883C697.91 245.959 697.042 244.958 696.862 243.735C696.681 242.511 697.181 241.42 697.612 240.329C700.909 231.989 701.082 221.502 694.731 215.136C689.366 209.784 688.061 202.876 682.237 197.99C677.983 194.411 675.643 189.164 673.436 184.09C671.569 179.802 669.688 175.479 668.619 170.934C667.786 167.382 667.453 163.706 666.308 160.238C665.163 156.77 663.018 153.399 659.666 151.849C658.472 151.3 657.146 150.988 656.056 150.258C654.626 149.292 653.766 147.721 652.732 146.345C647.477 139.395 629.882 143.489 621.553 146.31C619.289 147.021 617.192 148.184 615.389 149.73L615.466 149.605C615.528 149.5 615.605 149.396 615.674 149.292C614.762 150.03 613.975 150.91 613.342 151.898C612.127 153.823 611.62 156.068 610.607 158.153C609.385 160.62 602.59 167.508 605.512 170.281C605.717 170.467 605.952 170.617 606.206 170.725C607.303 171.183 608.511 171.303 609.677 171.073L609.552 171.372C608.554 173.818 608.042 176.436 608.046 179.079C608.046 190.498 617.451 199.755 629.063 199.755C631.246 199.757 633.416 199.422 635.497 198.761C635.546 199.026 635.587 199.29 635.636 199.554C635.636 199.658 635.671 199.762 635.685 199.867L635.317 200.381C635.298 200.349 635.277 200.319 635.254 200.29L624.357 215.539C622.691 216.713 613.099 223.663 612.557 228.876C611.988 234.582 611.419 241.26 611.419 241.26L611.343 242.692C610.867 243.091 610.31 243.381 609.71 243.543C609.111 243.705 608.484 243.735 607.872 243.63C604.471 243.074 604.471 256.14 604.471 256.14C604.471 256.14 602.209 258.225 600.654 256.418C599.099 254.611 594.99 260.734 594.99 260.734L569.239 261.846L568.649 261.881L567.261 257.579C567.112 257.125 566.789 256.749 566.364 256.531C565.939 256.314 565.446 256.273 564.991 256.418C564.884 256.454 564.779 256.498 564.679 256.55L564.582 256.606L564.401 256.731L564.311 256.814C564.261 256.86 564.215 256.908 564.172 256.96L564.089 257.058L564.047 257.099C563.887 257.321 563.781 257.578 563.738 257.848C563.694 258.118 563.715 258.395 563.797 258.656L564.991 262.347C560.022 263.347 554.941 266.169 559.085 273.939L538.081 270.054L544.876 275.767L579.956 283.016C579.491 283.85 579.796 285.059 581.247 286.762C587.494 294.108 598.877 296.102 603.458 296.617C604.668 299.326 606.179 301.891 607.963 304.262L607.567 311.58C607.567 311.58 595.969 367.36 593.845 370.189C594.917 368.972 595.898 367.678 596.781 366.318C593.414 377.778 588.708 393.464 587.473 395.813C585.488 399.566 583.648 414.752 585.911 415.725C586.605 416.024 588.59 415.878 591.422 415.662V416.92L591.297 464.59C591.297 464.59 591.867 493.828 590.305 496.615C588.743 499.402 588.327 505.247 588.327 505.247C588.327 505.247 582.08 516.777 577.131 521.413C577.097 521.449 577.06 521.481 577.02 521.51L576.867 520.426C576.867 520.426 570.919 527.946 557.759 527.522C557.759 527.522 549.839 532.679 561.583 532.957C573.327 533.235 588.327 532.54 588.327 532.54C588.327 532.54 598.801 516.555 607.574 518.64V530.753H610.26V518.445C611.506 517.624 612.572 516.558 613.394 515.312C614.216 514.066 614.777 512.666 615.042 511.196C615.272 509.682 615.104 508.133 614.554 506.703C614.003 505.274 613.091 504.013 611.905 503.044C611.372 502.562 610.945 501.975 610.65 501.319C610.355 500.664 610.199 499.954 610.191 499.235L610.093 499.319C610.093 499.076 610.031 498.825 610.003 498.568C609.233 492.313 608.268 479.407 611.676 469.858C616.347 456.764 617.763 438.528 614.362 427.672C613.265 424.202 612.363 420.673 611.662 417.101C611.579 416.649 611.502 416.218 611.433 415.815C613.758 416.13 616.06 416.594 618.325 417.205C626.203 419.381 643.438 419.784 658.152 419.665C658.187 420.069 658.229 420.493 658.277 420.917C658.54 423.863 659.088 426.778 659.915 429.618C661.762 435.178 662.608 459.69 662.608 459.69C662.608 459.69 664.989 479.845 663.691 488.046C662.997 492.605 662.303 497.185 661.907 501.786V501.876C661.907 501.876 658.007 512.996 655.154 519.036C655.085 519.189 655.008 519.342 654.939 519.488C654.178 519.557 653.43 519.723 652.711 519.981C652.711 519.981 648.886 527.626 645.076 528.891C641.265 530.156 642.528 534.319 651.156 532.79C659.784 531.261 672.812 530.01 672.812 530.01L673.374 522.212L676.025 518.89L675.331 526.667L678.156 526.111L677.781 516.652L682.119 511.217C682.119 511.217 687.36 506.547 679.572 497.359V497.56C679.489 497.428 679.412 497.289 679.322 497.157V497.116C678.031 495.114 677.004 491.382 678.885 484.759C682.286 472.791 684.264 461.928 684.264 461.928C684.264 461.928 691.858 432.829 682.73 419.061H683.133C682.197 417.123 681.536 415.065 681.168 412.945C681.122 412.695 681.081 412.438 681.044 412.173C687.797 411.784 694.426 410.561 699.833 407.92C699.812 407.892 696.557 338.838 693.863 327.843ZM608.122 279.68V279.819L606.734 279.888L608.122 279.68ZM603.361 280.34C603.132 280.391 602.919 280.493 602.736 280.639C602.139 281.484 601.764 282.467 601.646 283.495L599.481 283.009C599.481 283.009 597.961 282.682 595.774 282.314L594.74 281.271C597.586 281.035 600.543 280.687 603.361 280.34Z" fill="url(#paint1_linear_1_41)"/>
<path d="M675.012 516.749L674.186 526.597L676.955 526.041L676.539 515.359L675.012 516.749Z" fill="#1D2366"/>
<path d="M611.829 469.99C608.49 479.511 609.434 492.362 610.184 498.603C610.461 500.91 610.718 502.314 610.718 502.314C610.718 502.314 605.728 513.698 605.311 514.129C604.895 514.56 590.624 523.282 590.624 523.282L580.65 529.113C580.65 529.113 570.53 524.672 575.382 523.143C576.373 522.745 577.266 522.135 577.999 521.357C582.857 516.735 588.958 505.247 588.958 505.247C588.958 505.247 589.375 499.416 590.902 496.643C592.429 493.87 591.873 464.729 591.873 464.729L591.991 417.226V411.034L610.975 411.173C611.095 413.275 611.368 415.366 611.794 417.428C612.475 420.987 613.358 424.505 614.438 427.964C617.784 438.799 616.396 456.945 611.829 469.99Z" fill="#FFB0B1"/>
<path opacity="0.1" d="M610.718 502.314C610.718 502.314 605.728 513.698 605.311 514.129C604.895 514.56 590.624 523.282 590.624 523.282L580.65 529.113C580.65 529.113 570.53 524.672 575.382 523.143C576.373 522.745 577.266 522.135 577.999 521.357L578.429 524.394L581.754 524.255L610.211 498.617C610.461 500.91 610.718 502.314 610.718 502.314Z" fill="black"/>
<path d="M610.371 499.263L581.754 525.075L578.429 525.214L577.735 520.349C577.735 520.349 571.918 527.841 558.994 527.424C558.994 527.424 551.234 532.56 562.736 532.838C574.237 533.116 588.924 532.421 588.924 532.421C588.924 532.421 599.182 516.437 607.768 518.522V530.594H610.406V518.41C611.632 517.584 612.679 516.517 613.483 515.275C614.287 514.033 614.831 512.641 615.084 511.182C615.312 509.68 615.151 508.144 614.615 506.722C614.079 505.301 613.186 504.041 612.023 503.065C611.504 502.577 611.089 501.989 610.805 501.335C610.521 500.681 610.373 499.976 610.371 499.263Z" fill="#1D2366"/>
<path d="M677.649 484.835C675.803 491.438 676.81 495.156 678.073 497.15V497.192C679.693 499.655 680.82 502.409 681.391 505.303L681.502 505.928L668.481 524.936L661.415 527.716C661.415 527.716 650.052 523.831 652.128 522.719C652.648 522.448 653.46 521.003 654.39 519.008C657.167 512.996 660.998 501.904 660.998 501.904V501.814C661.401 497.234 662.039 492.668 662.747 488.122C664.017 479.942 661.685 459.864 661.685 459.864C661.685 459.864 660.852 435.449 659.048 429.896C658.233 427.072 657.691 424.177 657.431 421.25C657.056 417.775 656.972 414.912 656.972 414.912C656.972 414.912 664.455 404.487 678.17 415.746C679.267 416.644 680.232 417.692 681.037 418.859C690.511 432.356 682.883 462.088 682.883 462.088C682.883 462.088 680.974 472.902 677.649 484.835Z" fill="#FFB0B1"/>
<path opacity="0.1" d="M681.523 505.928L668.501 524.936L661.435 527.716C661.435 527.716 650.073 523.831 652.149 522.719C652.669 522.448 653.481 521.003 654.411 519.008C659.221 518.966 661.713 523.553 661.713 523.553L667.807 522.58C667.807 522.58 675.845 506.762 677.649 505.796C679.454 504.83 677.927 498.575 677.927 498.575V496.984C677.976 497.039 678.017 497.102 678.073 497.157V497.199C679.693 499.662 680.82 502.416 681.391 505.31L681.523 505.928Z" fill="black"/>
<path d="M662.13 523.963C662.13 523.963 658.659 517.583 652.01 519.939C652.01 519.939 648.269 527.584 644.527 528.821C640.786 530.058 642.036 534.228 650.49 532.706C658.944 531.184 671.687 529.926 671.687 529.926L672.243 522.149L680.835 511.189C680.835 511.189 685.958 506.54 678.337 497.387V498.978C678.337 498.978 679.864 505.233 678.059 506.199C676.254 507.165 668.245 522.99 668.245 522.99L662.13 523.963Z" fill="#1D2366"/>
<path opacity="0.1" d="M610.996 411.159C611.116 413.261 611.389 415.352 611.815 417.414C603.999 416.267 596.746 416.837 591.992 417.212V411.02L610.996 411.159Z" fill="black"/>
<path opacity="0.1" d="M681.807 420.59C681.807 420.59 670.702 421.132 657.458 421.243C657.083 417.768 657 414.905 657 414.905C657 414.905 664.482 404.48 678.198 415.739C679.295 416.637 680.26 417.685 681.064 418.852C681.279 419.445 681.527 420.025 681.807 420.59Z" fill="black"/>
<path d="M681.807 419.339C681.807 419.339 633.165 421.695 618.339 417.532C603.513 413.369 588.819 416.976 586.605 416.01C584.391 415.044 586.189 399.914 588.132 396.168C590.076 392.422 600.737 354.538 600.737 354.538L610.996 300.981L621.803 298L622.566 297.784L641.397 292.586L655.196 288.77C655.196 288.77 682.633 396.029 680.28 403.938C679.425 406.966 679.288 410.153 679.877 413.244C680.237 415.355 680.886 417.406 681.807 419.339Z" fill="#1D2366"/>
<path d="M575.236 264.355C575.236 264.355 565.519 274.78 572.876 280.59C580.234 286.4 585.071 281.146 585.071 281.146L575.236 264.355Z" fill="#C7DAF5"/>
<path opacity="0.1" d="M575.236 264.355C575.236 264.355 565.519 274.78 572.876 280.59C580.234 286.4 585.071 281.146 585.071 281.146L575.236 264.355Z" fill="black"/>
<path d="M653.745 195.815C653.745 195.815 652.607 196.899 650.892 198.497C648.449 200.784 644.833 204.127 641.626 206.928C637.184 210.799 633.519 213.641 634.831 211.216C636.143 208.79 635.893 204.565 635.24 200.61C635.192 200.346 635.15 200.082 635.102 199.825C634.561 196.921 633.845 194.052 632.957 191.235C632.957 191.235 640.134 181.95 644.104 178.287C645.582 176.897 646.617 176.327 646.679 177.293C646.748 178.593 647.72 181.463 648.928 184.507C648.963 184.604 648.997 184.695 649.039 184.792C649.844 186.877 650.753 189.018 651.552 190.866C652.773 193.702 653.745 195.815 653.745 195.815Z" fill="#FFB0B1"/>
<path opacity="0.1" d="M649.039 184.792C648.365 188.424 646.728 191.809 644.301 194.591C641.874 197.374 638.744 199.453 635.24 200.61C634.689 197.438 633.926 194.305 632.957 191.235C632.957 191.235 646.471 173.756 646.679 177.293C646.728 178.634 647.783 181.609 649.039 184.792Z" fill="black"/>
<path opacity="0.1" d="M633.894 205.281L635.643 202.813C635.643 202.813 636.802 209.888 641.064 206.768C645.326 203.647 645.534 230.252 645.534 230.252L640.96 298.729L607.907 296.749L608.844 263.66L612.585 246.98L621.837 222.732L627.342 214.719L633.894 205.281Z" fill="black"/>
<path d="M645.534 230.676L641.369 292.593L640.932 299.153L622.504 298.048L621.81 298.007L607.928 297.173L608.865 264.077L612.606 247.397L621.858 223.149L627.362 215.136L633.915 205.663L635.664 203.203C635.664 203.203 636.823 210.278 641.085 207.157L641.175 207.094C645.339 204.453 645.534 230.676 645.534 230.676Z" fill="#1D2366"/>
<path d="M613.071 241.601C613.071 241.601 611.412 245.076 608.081 244.513C604.749 243.95 604.756 257.023 604.756 257.023C604.756 257.023 602.542 259.108 601.015 257.301C599.488 255.494 595.462 261.603 595.462 261.603L570.239 262.715C570.239 262.715 581.462 267.851 579.262 283.391C579.262 283.391 617.368 281.028 618.617 277.421C619.866 273.814 613.071 241.601 613.071 241.601Z" fill="white"/>
<path opacity="0.03" d="M613.071 241.601C613.071 241.601 611.412 245.076 608.081 244.513C604.749 243.95 604.756 257.023 604.756 257.023C604.756 257.023 602.542 259.108 601.015 257.301C599.488 255.494 595.462 261.603 595.462 261.603L570.239 262.715C570.239 262.715 581.462 267.851 579.262 283.391C579.262 283.391 617.368 281.028 618.617 277.421C619.866 273.814 613.071 241.601 613.071 241.601Z" fill="black"/>
<path d="M539.768 270.881L546.417 276.566L601.153 288.082L594.365 281.146L539.768 270.881Z" fill="white"/>
<path d="M633.998 207.47C633.089 208.86 630.486 215.976 628.313 222.19C626.502 227.367 624.989 231.92 624.989 231.92C624.989 231.92 621.456 254.952 619.651 259.115C617.846 263.278 618.825 279.513 618.825 279.513L612.099 319.607C612.099 319.607 609.052 340.283 604.346 352.633C599.703 364.789 594.532 370.488 594.372 370.668C596.455 367.847 607.803 312.289 607.803 312.289L611.551 242.219C611.551 242.219 612.099 235.561 612.655 229.869C613.21 224.177 624.454 216.407 624.454 216.407L635.296 200.972C636.386 202.431 635.657 204.975 633.998 207.47Z" fill="white"/>
<path d="M605.728 297.52C605.728 297.52 589.763 296.825 582.031 287.526C574.299 278.227 599.904 283.815 599.904 283.815L606.561 285.344L605.728 297.52Z" fill="#FFB0B1"/>
<path opacity="0.1" d="M680.28 403.945C679.426 406.973 679.288 410.16 679.877 413.251C662.463 414.488 643.833 409.776 643.833 409.776C640.363 412.973 631.222 417.685 631.222 417.685L626.238 355.83C623.052 347.49 621.803 303.796 621.803 303.796C621.803 303.796 622.087 301.509 622.497 298.083C622.497 298 622.497 297.909 622.532 297.826C623.774 288.256 626.238 270.29 627.446 267.865C629.112 264.529 622.323 255.654 622.323 255.654L625.412 229.279L625.787 226.096C632.297 223.184 637.288 213.885 637.288 213.885L641.119 207.164C645.284 204.488 645.499 230.71 645.499 230.71L641.335 292.627L655.133 288.812C655.133 288.812 682.633 396.036 680.28 403.945Z" fill="black"/>
<path d="M698.153 408.219C679.17 417.657 644.666 408.914 644.666 408.914C641.196 412.111 632.055 416.823 632.055 416.823L627.064 354.968C623.885 346.629 622.636 302.934 622.636 302.934C622.636 302.934 626.648 270.332 628.313 267.003C628.799 266.03 628.563 264.584 627.987 263.028C625.155 255.618 624.113 247.642 624.947 239.752L626.28 228.417L626.648 225.241C633.165 222.322 638.156 213.023 638.156 213.023L641.626 206.935L648.012 195.717L651.038 190.408L651.552 190.873L655.473 194.432C655.473 194.432 657.139 195.822 659.638 197.907C665.072 202.494 674.464 210.569 679.308 215.511C683.57 219.862 684.917 236.785 685.305 249.524C685.562 257.912 685.409 264.487 685.409 264.487C681.113 271.569 692.35 328.427 692.35 328.427C694.967 339.414 698.153 408.219 698.153 408.219Z" fill="white"/>
<path opacity="0.03" d="M661.713 212.884C661.713 212.884 648.685 237.716 650.198 247.154C651.711 256.592 656.015 267.274 653.939 269.769C653.226 270.714 652.304 271.482 651.246 272.011C650.188 272.54 649.021 272.817 647.838 272.82C645.756 272.959 640.203 276.844 640.203 277.261C640.203 277.678 635.074 277.678 630.486 279.624C625.898 281.57 619.124 282.675 619.124 282.675C619.124 282.675 605.936 282.258 604.707 283.509C603.479 284.76 602.215 292.245 604.846 298.215C607.477 304.185 610.399 308.64 612.606 309.453C614.813 310.266 628.82 305.568 640.182 304.456C651.545 303.344 663.879 294.33 663.879 294.33C663.879 294.33 677.462 289.465 679.843 281.285C682.224 273.105 676.935 228.146 676.935 228.146C676.935 228.146 672.937 207.192 661.713 212.884Z" fill="black"/>
<path opacity="0.03" d="M660.047 210.799C660.047 210.799 647.019 235.638 648.546 245.069C650.073 254.5 654.363 265.189 652.28 267.691C651.57 268.637 650.65 269.406 649.592 269.935C648.535 270.464 647.369 270.741 646.186 270.742C644.104 270.881 638.551 274.766 638.551 275.183C638.551 275.6 633.422 275.6 628.834 277.539C624.246 279.478 617.472 280.59 617.472 280.59C617.472 280.59 604.284 280.173 603.062 281.424C601.841 282.675 600.564 290.167 603.201 296.13C605.839 302.093 608.754 306.555 610.961 307.368C613.168 308.181 627.175 303.483 638.537 302.378C649.9 301.273 662.234 292.245 662.234 292.245C662.234 292.245 675.81 287.38 678.163 279.207C680.516 271.034 675.255 226.061 675.255 226.061C675.255 226.061 671.271 205.114 660.047 210.799Z" fill="black"/>
<path d="M661.304 211.633C661.304 211.633 648.275 236.472 649.802 245.903C651.329 255.334 655.619 266.023 653.544 268.518C652.833 269.467 651.912 270.237 650.853 270.767C649.794 271.298 648.627 271.575 647.443 271.576C645.36 271.715 639.808 275.6 639.808 276.01C639.808 276.42 634.685 276.427 630.09 278.373C625.495 280.319 618.728 281.424 618.728 281.424C618.728 281.424 605.54 281.007 604.312 282.258C603.083 283.509 601.82 291.001 604.45 296.964C607.081 302.927 610.003 307.389 612.21 308.202C614.418 309.015 628.424 304.317 639.787 303.205C651.149 302.093 663.483 293.079 663.483 293.079C663.483 293.079 677.066 288.214 679.447 280.034C681.828 271.854 676.574 226.895 676.574 226.895C676.574 226.895 672.52 205.976 661.304 211.633Z" fill="white"/>
<path opacity="0.1" d="M661.019 278.255C661.019 278.255 650.608 276.17 654.231 279.645C657.854 283.12 657.833 286.164 662.268 286.025C666.704 285.886 661.019 278.255 661.019 278.255Z" fill="black"/>
<path opacity="0.1" d="M678.614 353.022C678.614 353.022 673.908 356.213 682.911 363.566C691.913 370.919 678.614 353.022 678.614 353.022Z" fill="black"/>
<path opacity="0.1" d="M669.633 379.245C669.633 379.662 667.967 394.534 674.2 398.253C680.433 401.971 669.633 379.245 669.633 379.245Z" fill="black"/>
<path d="M570.669 262.68C565.644 262.854 554.788 264.39 560.417 274.905C565.394 284.211 573.758 277.991 578.464 273.272C577.316 268.872 574.526 265.081 570.669 262.68Z" fill="#FFB0B1"/>
<path opacity="0.1" d="M659.638 198.331C654.307 201.979 649.837 205.058 648.963 205.698C646.575 207.47 642.022 217.874 639.086 223.184C636.747 227.458 629.146 228.556 626.28 228.827L626.648 225.651C633.165 222.732 638.156 213.433 638.156 213.433L651.038 190.818L655.473 194.856C655.473 194.856 657.139 196.246 659.638 198.331Z" fill="black"/>
<path d="M659.638 197.914C654.307 201.562 649.837 204.641 648.963 205.287C646.575 207.053 642.022 217.457 639.086 222.767C636.747 227.041 629.146 228.139 626.28 228.41L626.648 225.234C633.165 222.315 638.156 213.016 638.156 213.016L651.038 190.401L655.473 194.425C655.473 194.425 657.139 195.801 659.638 197.914Z" fill="#DCE7FF"/>
<path d="M649.379 180.205C649.382 184.377 648.118 188.451 645.756 191.888C642.966 195.951 638.813 198.878 634.052 200.138C629.291 201.398 624.237 200.907 619.806 198.755C615.375 196.602 611.862 192.931 609.903 188.406C607.945 183.882 607.671 178.805 609.132 174.096C610.592 169.386 613.69 165.357 617.863 162.74C622.037 160.122 627.009 159.089 631.878 159.828C636.747 160.567 641.19 163.029 644.401 166.768C647.612 170.507 649.378 175.274 649.379 180.205Z" fill="#FFB0B1"/>
<path opacity="0.1" d="M685.305 249.531C682.487 247.795 680.191 245.325 678.663 242.386C677.504 240.093 676.733 237.445 674.755 235.819C672.971 234.359 670.591 234.005 668.369 233.351C661.068 231.19 654.946 224.518 654.717 216.901C654.606 213.315 655.723 209.735 655.216 206.184C654.928 204.174 654.13 202.272 652.898 200.659C652.286 199.887 651.616 199.165 650.892 198.497C649.92 197.58 648.9 196.69 648.012 195.717C647.452 195.115 646.963 194.45 646.554 193.737C646.224 193.153 645.956 192.535 645.756 191.895C644.368 187.642 645.631 182.596 644.104 178.294L644.021 178.058C643.445 176.529 642.272 175 640.64 174.881C639.009 174.763 637.614 176.119 636.059 176.723C632.804 177.988 629.292 175.834 626.578 173.637C623.864 171.441 620.803 168.932 617.354 169.419C615.07 169.745 613.265 171.302 611.162 172.108C610.688 172.292 610.197 172.434 609.698 172.532C611.478 168.088 614.748 164.403 618.946 162.11C623.145 159.818 628.009 159.061 632.705 159.97C637.4 160.878 641.633 163.396 644.676 167.09C647.718 170.784 649.381 175.424 649.379 180.212C649.381 181.658 649.23 183.1 648.928 184.514C648.963 184.611 648.997 184.702 649.039 184.799C649.844 186.884 650.753 189.025 651.552 190.873L655.473 194.432C655.473 194.432 657.139 195.822 659.638 197.907C665.072 202.494 674.464 210.569 679.308 215.511C683.57 219.875 684.903 236.792 685.305 249.531Z" fill="black"/>
<path d="M610.919 159.411C611.912 157.388 612.405 155.123 613.592 153.205C615.334 150.425 618.374 148.645 621.497 147.568C629.653 144.753 646.887 140.667 652.037 147.568C653.051 148.958 653.891 150.501 655.293 151.46C656.362 152.19 657.653 152.503 658.826 153.052C662.109 154.595 664.205 157.958 665.322 161.392C666.44 164.825 666.773 168.508 667.592 172.046C668.64 176.584 670.479 180.886 672.312 185.16C674.471 190.206 676.761 195.439 680.926 199.005C686.61 203.87 687.867 210.757 693.142 216.095C699.388 222.433 699.187 232.893 695.967 241.198C695.543 242.289 695.064 243.429 695.231 244.589C695.397 245.75 696.258 246.806 697.07 247.731L700.485 251.588C692.406 253.541 683.265 249.315 679.503 241.9C678.344 239.606 677.573 236.965 675.588 235.332C673.811 233.873 671.423 233.525 669.209 232.872C661.907 230.703 655.786 224.025 655.557 216.407C655.445 212.828 656.563 209.249 656.056 205.704C655.774 203.681 654.973 201.765 653.731 200.145C651.822 197.649 648.942 195.975 647.387 193.195C644.756 188.545 646.755 182.506 644.861 177.515C644.278 175.987 643.111 174.458 641.48 174.339C639.849 174.221 638.454 175.576 636.892 176.181C633.644 177.446 630.132 175.298 627.418 173.095C624.704 170.892 621.643 168.39 618.187 168.884C615.903 169.203 614.105 170.76 612.002 171.573C610.447 172.171 607.296 172.706 605.936 171.393C603.062 168.745 609.719 161.885 610.919 159.411Z" fill="#591D4B"/>
<path opacity="0.1" d="M681.432 239.606C680.266 237.313 679.503 234.672 677.518 233.046C675.741 231.586 673.353 231.232 671.132 230.578C663.837 228.417 657.715 221.738 657.479 214.121C657.368 210.542 658.486 206.955 657.986 203.411C657.695 201.401 656.895 199.498 655.661 197.886C653.745 195.391 650.864 193.716 649.317 190.936C646.686 186.293 648.685 180.254 646.783 175.257C646.207 173.735 645.034 172.206 643.41 172.081C641.786 171.956 640.377 173.325 638.822 173.929C635.574 175.194 632.055 173.04 629.348 170.844C626.641 168.647 623.566 166.138 620.116 166.625C617.833 166.952 616.028 168.508 613.932 169.315C612.377 169.912 609.219 170.454 607.858 169.141C604.999 166.361 611.655 159.515 612.849 157.055C613.842 155.025 614.334 152.767 615.528 150.849C615.591 150.744 615.66 150.64 615.729 150.536C614.836 151.277 614.066 152.154 613.446 153.135C612.259 155.053 611.766 157.305 610.774 159.341C609.573 161.802 602.917 168.668 605.783 171.427C607.171 172.748 610.295 172.206 611.85 171.608C613.932 170.795 615.75 169.238 618.034 168.918C621.504 168.425 624.558 170.934 627.265 173.13C629.972 175.326 633.512 177.481 636.747 176.216C638.301 175.611 639.662 174.249 641.328 174.374C642.993 174.499 644.104 176.021 644.708 177.55C646.603 182.54 644.604 188.58 647.234 193.229C648.789 195.961 651.67 197.67 653.578 200.179C654.82 201.8 655.622 203.716 655.904 205.739C656.41 209.284 655.293 212.863 655.404 216.442C655.633 224.087 661.755 230.738 669.057 232.907C671.257 233.56 673.658 233.907 675.435 235.367C677.427 237 678.212 239.641 679.35 241.935C683.112 249.35 692.253 253.576 700.332 251.623L698.722 249.802C691.719 249.906 684.632 245.917 681.432 239.606Z" fill="black"/>
<path opacity="0.1" d="M633.582 207.887C632.672 209.277 630.069 216.393 627.897 222.607C625.863 221.814 624.017 216.762 624.017 216.762L634.859 201.319C635.969 202.848 635.24 205.385 633.582 207.887Z" fill="black"/>
<path d="M633.998 207.47C633.089 208.86 630.486 215.976 628.313 222.19C626.28 221.404 624.433 216.345 624.433 216.345L635.275 200.909C636.386 202.431 635.657 204.975 633.998 207.47Z" fill="#DCE7FF"/>
<path d="M570.96 278.47L564.95 259.49C564.878 259.268 564.852 259.034 564.871 258.801C564.891 258.569 564.956 258.342 565.063 258.135C565.17 257.928 565.317 257.744 565.495 257.593C565.673 257.443 565.88 257.329 566.102 257.259C566.549 257.119 567.034 257.162 567.45 257.378C567.866 257.594 568.179 257.966 568.323 258.413L574.334 277.372L573.737 281.341L570.96 278.47Z" fill="#BE8B87"/>
<path opacity="0.1" d="M565.519 257.822C565.967 257.68 566.453 257.722 566.871 257.938C567.288 258.154 567.603 258.527 567.747 258.976L573.758 277.935L573.307 280.91L573.744 281.369L574.341 277.4L568.295 258.441C568.152 257.994 567.838 257.622 567.422 257.406C567.006 257.19 566.521 257.147 566.074 257.287C565.698 257.409 565.373 257.654 565.151 257.982C565.269 257.919 565.392 257.865 565.519 257.822Z" fill="white"/>
<path d="M570.96 278.47L574.334 277.4L573.841 280.653L573.737 281.369L572.751 280.34L570.96 278.47Z" fill="#EFC8C4"/>
<path d="M572.751 280.34C572.81 280.266 572.883 280.204 572.966 280.159C573.015 280.128 573.072 280.112 573.13 280.112C573.187 280.112 573.244 280.128 573.293 280.159C573.34 280.216 573.38 280.28 573.411 280.347C573.456 280.424 573.519 280.489 573.593 280.538C573.668 280.588 573.753 280.62 573.841 280.632L573.737 281.327L572.751 280.34Z" fill="#727A9C"/>
<path d="M564.915 266.232C564.915 266.232 576.971 266.162 574.133 271.298C571.294 276.434 566.858 277.053 566.858 277.053L564.915 266.232Z" fill="#FFB0B1"/>
<path d="M489.932 35.7366H489.412C468.7 35.7366 450.383 46.7106 439.846 62.904C429.31 46.7106 410.993 35.7366 390.281 35.7366H389.761C374.217 35.8849 359.36 42.1695 348.418 53.2246C337.476 64.2797 331.334 79.2119 331.325 94.7764C331.325 114.104 339.779 141.529 356.264 164.095C387.671 207.094 439.846 244.715 439.846 244.715C439.846 244.715 492.021 207.101 523.422 164.095C539.914 141.529 548.361 114.104 548.361 94.7764C548.352 79.2131 542.211 64.2819 531.27 53.227C520.33 42.1721 505.474 35.8868 489.932 35.7366ZM482.485 167.403C480.126 167.394 477.825 166.671 475.884 165.329C473.943 163.987 472.452 162.089 471.608 159.883H459.225C458.41 159.878 457.617 159.618 456.956 159.14C456.295 158.662 455.8 157.988 455.54 157.215L451.736 145.74L439.701 187.85C439.466 188.661 438.976 189.373 438.302 189.881C437.629 190.388 436.809 190.663 435.966 190.665H435.724C434.844 190.622 434.006 190.279 433.349 189.692C432.692 189.105 432.256 188.31 432.114 187.44L419.711 112.742L410.646 156.944C410.438 157.783 409.955 158.529 409.275 159.062C408.594 159.595 407.755 159.884 406.891 159.883H389.448C388.926 159.906 388.404 159.822 387.914 159.637C387.424 159.451 386.977 159.169 386.599 158.807C386.222 158.444 385.921 158.009 385.716 157.527C385.51 157.045 385.404 156.526 385.404 156.002C385.404 155.478 385.51 154.959 385.716 154.477C385.921 153.995 386.222 153.56 386.599 153.197C386.977 152.835 387.424 152.552 387.914 152.367C388.404 152.182 388.926 152.098 389.448 152.12H403.837L416.678 92.6914C416.888 91.8128 417.397 91.0347 418.118 90.4903C418.838 89.9459 419.725 89.6688 420.626 89.7066C421.528 89.7443 422.389 90.0945 423.061 90.6973C423.733 91.3 424.176 92.1179 424.313 93.0111L436.98 169.21L447.766 131.535C447.991 130.741 448.465 130.042 449.12 129.541C449.774 129.04 450.573 128.764 451.396 128.755H451.472C452.288 128.755 453.083 129.013 453.744 129.492C454.404 129.972 454.897 130.647 455.151 131.423L462.03 152.141H471.455C472.126 150.103 473.345 148.289 474.98 146.9C476.614 145.512 478.6 144.603 480.718 144.273C482.836 143.943 485.004 144.206 486.983 145.032C488.961 145.858 490.673 147.216 491.93 148.954C493.186 150.693 493.938 152.746 494.104 154.886C494.269 157.026 493.84 159.17 492.865 161.081C491.89 162.992 490.407 164.597 488.579 165.717C486.751 166.838 484.649 167.431 482.505 167.431L482.485 167.403Z" fill="#E22727"/>
</g>
<defs>
<linearGradient id="paint0_linear_1_41" x1="247.326" y1="538.53" x2="247.326" y2="110.872" gradientUnits="userSpaceOnUse">
<stop stop-color="#808080" stop-opacity="0.25"/>
<stop offset="0.54" stop-color="#808080" stop-opacity="0.12"/>
<stop offset="1" stop-color="#808080" stop-opacity="0.1"/>
</linearGradient>
<linearGradient id="paint1_linear_1_41" x1="620.123" y1="533.123" x2="620.123" y2="142.536" gradientUnits="userSpaceOnUse">
<stop stop-color="#808080" stop-opacity="0.25"/>
<stop offset="0.54" stop-color="#808080" stop-opacity="0.12"/>
<stop offset="1" stop-color="#808080" stop-opacity="0.1"/>
</linearGradient>
<clipPath id="clip0_1_41">
<rect width="767" height="544" fill="white"/>
</clipPath>
</defs>
</svg>
