<svg width="517" height="409" viewBox="0 0 517 409" fill="none" xmlns="http://www.w3.org/2000/svg">
<g clip-path="url(#clip0_2_410)">
<path d="M425.987 199.773L447.812 176.051L429.95 161.968L421.127 181.461L381.094 194.676C379.745 193.9 378.199 193.534 376.645 193.622C375.091 193.709 373.596 194.247 372.343 195.168C371.089 196.09 370.131 197.356 369.586 198.813C369.04 200.269 368.93 201.853 369.27 203.37C369.609 204.888 370.383 206.274 371.497 207.36C372.611 208.446 374.018 209.184 375.545 209.485C377.072 209.786 378.653 209.636 380.096 209.055C381.54 208.473 382.783 207.484 383.673 206.209L425.987 199.773Z" fill="#FFB6B6"/>
<path d="M465.994 146.175C469.95 154.989 445.814 180.171 445.814 180.171C439.213 185.505 438.166 198.856 429.985 200.343C407.913 204.353 421.641 200.157 415.939 202.348C410.574 204.41 415.516 186.762 411.926 185.64C409.874 184.999 421.29 177.621 421.29 177.621C421.29 177.621 431.578 157.46 437.904 147.002C439.638 144.013 442.1 141.51 445.062 139.727C448.024 137.944 451.389 136.939 454.845 136.805C454.845 136.805 462.038 137.36 465.994 146.175Z" fill="#E6E6E6"/>
<path d="M363.811 408.208H113.03C107.086 408.201 101.388 405.839 97.1848 401.639C92.9818 397.439 90.6176 391.745 90.6108 385.806V22.402C90.6176 16.4627 92.9818 10.7686 97.1848 6.56882C101.388 2.36907 107.086 0.0067074 113.03 0H363.811C369.755 0.00670918 375.453 2.36907 379.656 6.56882C383.859 10.7686 386.223 16.4627 386.23 22.402V385.806C386.223 391.745 383.859 397.439 379.656 401.639C375.453 405.839 369.755 408.201 363.811 408.208Z" fill="#3F3D56"/>
<path d="M364.252 393.915H112.589C110.757 393.913 109 393.185 107.704 391.89C106.409 390.595 105.68 388.84 105.678 387.009V21.1986C105.68 19.3678 106.409 17.6125 107.704 16.3179C109 15.0233 110.757 14.2951 112.589 14.293H364.252C366.084 14.2951 367.841 15.0233 369.137 16.3179C370.432 17.6125 371.161 19.3678 371.163 21.1986V387.009C371.161 388.84 370.432 390.595 369.137 391.89C367.841 393.185 366.084 393.913 364.252 393.915Z" fill="white"/>
<path d="M124.867 182.62C125.569 173.088 126.729 161.37 136.167 156.278C140.62 153.875 145.336 154.725 149.813 156.598C154.139 158.408 158.215 160.565 162.875 161.416C170.907 162.801 179.172 161.563 186.445 157.884C193.77 154.245 199.647 148.235 203.118 140.833C204.905 137.069 206.382 132.989 209.015 129.703C210.339 127.978 212.095 126.633 214.106 125.801C216.117 124.97 218.311 124.682 220.468 124.967C230.364 126.188 236.931 134.852 244.821 139.953C248.615 142.406 252.972 144.197 257.566 143.977C262.278 143.752 266.55 141.523 270.161 138.613C277.824 132.439 282.013 122.89 290.055 117.136C293.868 114.476 298.292 112.824 302.916 112.333C307.54 111.842 312.213 112.528 316.5 114.328C324.742 117.881 330.577 125.841 332.119 134.6C332.488 136.759 332.583 138.955 332.403 141.137C332.302 142.423 334.309 142.417 334.409 141.137C334.71 136.597 333.957 132.049 332.208 127.848C330.459 123.647 327.762 119.907 324.327 116.92C317.212 110.787 307.272 108.793 298.231 111.153C293.628 112.373 289.397 114.71 285.915 117.956C282.195 121.384 279.262 125.537 276.122 129.473C273.059 133.314 269.68 137.022 265.381 139.503C263.322 140.756 261.015 141.547 258.62 141.819C256.225 142.091 253.8 141.838 251.512 141.079C246.871 139.514 242.94 136.292 239.227 133.206C235.399 130.026 231.59 126.843 226.99 124.822C222.713 122.943 217.807 122.032 213.355 123.882C209.341 125.551 206.684 129.014 204.714 132.76C202.715 136.562 201.292 140.662 198.96 144.287C196.704 147.758 193.809 150.768 190.428 153.159C183.562 158.061 175.214 160.445 166.792 159.907C162.217 159.582 158.057 158.138 153.913 156.245C149.341 154.156 144.524 151.984 139.379 152.996C134.94 153.869 131.206 156.882 128.614 160.481C125.62 164.637 124.305 169.731 123.619 174.735C123.26 177.353 123.054 179.986 122.86 182.62C122.765 183.907 124.772 183.901 124.867 182.62Z" fill="#E4E4E4"/>
<path d="M479.537 398.551L470.01 398.55L465.477 361.83L479.539 361.831L479.537 398.551Z" fill="#FFB6B6"/>
<path d="M479.283 395.439L469.118 391.313L468.818 391.19L463.204 395.439C460.124 395.439 457.162 396.627 454.937 398.756C452.712 400.884 451.396 403.789 451.262 406.865C451.247 407.034 451.247 407.21 451.247 407.387V407.779H481.967V395.439H479.283Z" fill="#2F2E41"/>
<path d="M457.225 389.691L448.238 392.851L431.765 359.716L445.029 355.053L457.225 389.691Z" fill="#FFB6B6"/>
<path d="M455.952 386.84L444.992 386.32L444.669 386.303L440.785 392.173C437.879 393.194 435.48 395.297 434.088 398.043C432.696 400.789 432.419 403.966 433.315 406.911C433.357 407.076 433.415 407.243 433.474 407.409L433.604 407.779L462.583 397.591L458.484 385.95L455.952 386.84Z" fill="#2F2E41"/>
<path d="M482.904 240.223C491.62 239.885 480.823 309.291 480.823 309.291C480.823 309.291 483.981 370.226 483.312 373.424C482.642 376.622 483.227 385.246 483.227 385.246C481.52 382.141 463.902 384.484 463.902 384.484L461.505 322.727L449.268 273.245L432.303 306.413L448.563 357.325C448.563 357.325 455.148 363.414 454.448 365.82C453.748 368.226 436.5 373.652 433.33 373.775C430.161 373.897 431.592 369.877 431.438 365.918C431.284 361.96 416.37 325.269 411.124 312.784C405.878 300.3 409.956 282.697 412.634 269.906C415.312 257.115 429.4 233.111 429.4 233.111C446.887 213.402 474.188 240.561 482.904 240.223Z" fill="#2F2E41"/>
<path d="M458.512 124.91C467.694 124.91 475.137 117.473 475.137 108.298C475.137 99.1239 467.694 91.6866 458.512 91.6866C449.331 91.6866 441.888 99.1239 441.888 108.298C441.888 117.473 449.331 124.91 458.512 124.91Z" fill="#FFB6B6"/>
<path d="M450.2 135.889C446.618 138.017 444.476 141.926 443.246 145.904C440.969 153.268 439.599 160.882 439.165 168.578L434.434 214.494L425.303 237.099C444.829 235.406 488.131 243.356 488.131 243.356C488.131 243.356 489.74 242.82 488.131 241.212C486.522 239.605 484.956 241.029 486.565 239.421C488.173 237.814 487.064 239.605 486.528 237.997C485.992 236.39 486.528 237.461 487.064 236.925C487.601 236.39 482.913 231.567 482.913 231.567L487.203 203.407L492.566 146.606C486.13 138.568 473.188 133.83 473.188 133.83L469.844 127.815L453.124 129.152L450.2 135.889Z" fill="#E6E6E6"/>
<path d="M498.865 199.393L494.739 175.093L480.382 177.693L481.643 198.948L475.359 243.19C473.896 243.719 472.618 244.662 471.681 245.904C470.745 247.146 470.191 248.633 470.086 250.185C469.981 251.737 470.33 253.285 471.09 254.642C471.851 255.999 472.99 257.105 474.369 257.826C475.748 258.547 477.307 258.851 478.856 258.702C480.406 258.553 481.878 257.957 483.094 256.986C484.309 256.015 485.216 254.712 485.704 253.235C486.191 251.758 486.238 250.171 485.838 248.668L498.865 199.393Z" fill="#FFB6B6"/>
<path d="M487.004 142.533C496.294 145.206 499.954 179.881 499.954 179.881C504.162 196.617 496.198 203.664 494.177 203.591C488.432 203.381 485.25 198.468 482.075 200.483C480.26 201.635 479.921 188.396 479.921 188.396C479.921 188.396 473.406 176.079 469.499 164.5C468.334 161.247 468.011 157.752 468.561 154.341C469.111 150.93 470.515 147.713 472.644 144.99C472.644 144.99 477.713 139.86 487.004 142.533Z" fill="#E6E6E6"/>
<path d="M477.536 103.222C477.481 100.523 477.175 97.0711 475.283 94.3181C473.687 92.002 470.467 90.1667 467.466 91.0843C467.5 90.4847 467.366 89.8874 467.081 89.359C466.795 88.8305 466.368 88.3916 465.848 88.091C464.697 87.5029 463.428 87.1835 462.136 87.1569C459.091 86.8728 455.937 86.5778 452.854 87.1623C449.393 87.8178 446.561 89.5986 445.091 92.0512L445.058 92.1276L444.757 93.5807C444.717 93.7755 444.635 93.9594 444.518 94.1197C444.4 94.28 444.248 94.4129 444.074 94.5093C443.9 94.607 443.706 94.665 443.507 94.6792C443.307 94.6934 443.107 94.6633 442.921 94.5912C442.717 94.5147 442.496 94.4928 442.281 94.5276C442.066 94.5623 441.864 94.6526 441.694 94.7894C441.525 94.9262 441.394 95.1049 441.315 95.3077C441.235 95.5105 441.21 95.7305 441.242 95.9459L441.324 96.5249L440.455 96.361C440.237 96.3188 440.011 96.3355 439.802 96.4095C439.592 96.4835 439.406 96.6121 439.263 96.7819C439.12 96.9517 439.025 97.1567 438.987 97.3756C438.95 97.5945 438.972 97.8194 439.05 98.0271L439.291 98.688C439.111 98.6904 438.934 98.7289 438.77 98.8011C438.605 98.8734 438.457 98.978 438.334 99.1087C438.159 99.2991 438.048 99.5403 438.019 99.7975C437.989 100.055 438.042 100.315 438.17 100.54C439.144 102.201 440.525 103.589 442.183 104.571C442.928 105.02 443.732 105.363 444.572 105.593C444.747 105.642 444.927 105.685 445.113 105.724C451.825 107.169 458.744 107.376 465.531 106.335C465.131 107.673 464.977 109.072 465.077 110.465C465.136 111.255 465.41 112.013 465.87 112.659C466.329 113.304 466.957 113.811 467.685 114.125C467.994 114.23 468.313 114.306 468.636 114.354C468.946 114.404 469.251 114.479 469.549 114.578C469.988 114.739 470.378 115.013 470.677 115.373C470.977 115.732 471.176 116.165 471.255 116.626C471.334 117.087 471.289 117.561 471.126 117.999C470.963 118.438 470.686 118.825 470.325 119.123C470.325 119.123 471.757 120.308 471.938 120.248C472.642 119.937 473.231 119.414 473.621 118.751C476.349 114.829 477.667 109.607 477.536 103.222Z" fill="#2F2E41"/>
<path d="M42.0005 353.771L40.0475 363.562C39.9004 364.31 39.7466 365.072 39.5794 365.827C37.9471 365.489 36.2546 365.584 34.6702 366.101C35.9273 367.896 37.0538 369.779 38.0411 371.735C36.8104 375.525 35.0046 379.026 31.9815 381.559C29.9624 383.213 27.5509 384.32 24.9795 384.771C22.4081 385.223 19.7635 385.005 17.3009 384.139L17.3878 383.751C14.1373 377.449 15.903 369.503 19.9427 363.682C22.0031 360.811 24.4443 358.232 27.1995 356.017C29.9282 353.745 32.8777 351.706 35.8005 349.695C36.4569 349.244 37.2331 348.998 38.0297 348.99C38.8264 348.982 39.6073 349.211 40.2729 349.649C40.9384 350.087 41.4582 350.713 41.766 351.447C42.0737 352.181 42.1554 352.99 42.0005 353.771Z" fill="#E4E4E4"/>
<path d="M17.9964 407.696C17.1744 401.713 16.329 395.654 16.9056 389.606C17.4179 384.236 19.0572 378.99 22.3959 374.689C24.168 372.41 26.3243 370.458 28.7678 368.92C29.4052 368.519 29.9911 369.527 29.357 369.927C25.1292 372.597 21.8591 376.539 20.0182 381.186C17.985 386.353 17.6586 391.986 18.0118 397.475C18.2238 400.794 18.6726 404.091 19.1254 407.386C19.1618 407.535 19.1399 407.692 19.064 407.825C18.9882 407.959 18.8642 408.058 18.7174 408.103C18.5681 408.144 18.4089 408.123 18.2744 408.047C18.1399 407.971 18.0409 407.844 17.9991 407.696L17.9964 407.696Z" fill="#F2F2F2"/>
<path d="M237.467 8.76644C238.52 8.76644 239.374 7.91321 239.374 6.8607C239.374 5.80819 238.52 4.95496 237.467 4.95496C236.414 4.95496 235.56 5.80819 235.56 6.8607C235.56 7.91321 236.414 8.76644 237.467 8.76644Z" fill="white"/>
<path d="M348.975 183.272H122.751C122.563 183.272 122.383 183.198 122.25 183.065C122.118 182.933 122.043 182.753 122.043 182.565L122.387 181.778L348.975 181.857C349.163 181.857 349.343 181.931 349.476 182.063C349.61 182.195 349.685 182.375 349.686 182.562C349.686 182.75 349.612 182.93 349.48 183.063C349.348 183.196 349.168 183.272 348.98 183.272L348.975 183.272Z" fill="#3F3D56"/>
<path d="M165.783 178.323H164.394V182.277H165.783V178.323Z" fill="#3F3D56"/>
<path d="M207.354 155.601H205.966V182.277H207.354V155.601Z" fill="#3F3D56"/>
<path d="M249.011 123.523H247.623V182.277H249.011V123.523Z" fill="#3F3D56"/>
<path d="M290.669 96.1223H289.28V182.277H290.669V96.1223Z" fill="#3F3D56"/>
<path d="M332.326 158.943H330.937V182.277H332.326V158.943Z" fill="#3F3D56"/>
<path d="M290.06 91.3204C292.406 91.3204 294.308 89.42 294.308 87.0758C294.308 84.7316 292.406 82.8313 290.06 82.8313C287.714 82.8313 285.812 84.7316 285.812 87.0758C285.812 89.42 287.714 91.3204 290.06 91.3204Z" fill="#E22727"/>
<path d="M249.072 116.219C251.418 116.219 253.319 114.318 253.319 111.974C253.319 109.63 251.418 107.73 249.072 107.73C246.726 107.73 244.824 109.63 244.824 111.974C244.824 114.318 246.726 116.219 249.072 116.219Z" fill="#E22727"/>
<path d="M331.717 155.369C334.063 155.369 335.965 153.468 335.965 151.124C335.965 148.78 334.063 146.88 331.717 146.88C329.371 146.88 327.469 148.78 327.469 151.124C327.469 153.468 329.371 155.369 331.717 155.369Z" fill="#E22727"/>
<path d="M205.551 330.481V280.4C205.551 279.757 206.299 279.237 207.221 279.237H214.673C215.595 279.237 216.343 279.757 216.343 280.4V330.612L205.551 330.481Z" fill="#3F3D56"/>
<path d="M230.164 330.65V292.384C230.164 291.766 230.912 291.266 231.834 291.266H239.286C240.208 291.266 240.956 291.766 240.956 292.384V330.567L230.164 330.65Z" fill="#3F3D56"/>
<path d="M279.39 330.561V311.099C279.325 310.866 280.07 310.665 281.06 310.647H288.512C289.502 310.665 290.247 310.866 290.182 311.099V330.612L279.39 330.561Z" fill="#3F3D56"/>
<path d="M180.938 330.561V311.099C180.938 310.849 181.685 310.647 182.608 310.647H190.06C190.982 310.647 191.73 310.849 191.73 311.099V330.612L180.938 330.561Z" fill="#3F3D56"/>
<path d="M254.777 330.367V236.386C254.777 235.181 255.525 234.204 256.447 234.204H263.899C264.821 234.204 265.569 235.181 265.569 236.386V330.612L254.777 330.367Z" fill="#E22727"/>
<path d="M322.299 331.477H153.755C153.578 331.477 153.408 331.407 153.283 331.281C153.157 331.156 153.087 330.986 153.087 330.809C153.087 330.632 153.157 330.462 153.283 330.336C153.408 330.211 153.578 330.141 153.755 330.141H322.299C322.476 330.141 322.646 330.211 322.772 330.336C322.897 330.462 322.968 330.632 322.968 330.809C322.968 330.986 322.897 331.156 322.772 331.281C322.646 331.407 322.476 331.477 322.299 331.477Z" fill="#3F3D56"/>
<path d="M516.331 409H0.668823C0.49144 409 0.321322 408.93 0.195893 408.804C0.0704645 408.679 0 408.509 0 408.332C0 408.154 0.0704645 407.984 0.195893 407.859C0.321322 407.734 0.49144 407.663 0.668823 407.663H516.331C516.509 407.663 516.679 407.734 516.804 407.859C516.93 407.984 517 408.154 517 408.332C517 408.509 516.93 408.679 516.804 408.804C516.679 408.93 516.509 409 516.331 409Z" fill="#CACACA"/>
<path d="M165.279 173.928C167.625 173.928 169.526 172.028 169.526 169.684C169.526 167.34 167.625 165.439 165.279 165.439C162.933 165.439 161.031 167.34 161.031 169.684C161.031 172.028 162.933 173.928 165.279 173.928Z" fill="#E22727"/>
<path d="M206.746 150.538C209.092 150.538 210.993 148.638 210.993 146.293C210.993 143.949 209.092 142.049 206.746 142.049C204.4 142.049 202.498 143.949 202.498 146.293C202.498 148.638 204.4 150.538 206.746 150.538Z" fill="#E22727"/>
</g>
<defs>
<clipPath id="clip0_2_410">
<rect width="517" height="409" fill="white"/>
</clipPath>
</defs>
</svg>
